<?xml version="1.0" standalone="no"?>
<!DOCTYPE svg PUBLIC "-//W3C//DTD SVG 1.1//EN" "http://www.w3.org/Graphics/SVG/1.1/DTD/svg11.dtd" >
<svg xmlns="http://www.w3.org/2000/svg">
<metadata>
This is a custom SVG webfont generated by Font Squirrel.
Copyright   : Copyright c 2010 by Svetoslav Simov All rights reserved
Designer    : Svetoslav Simov
Foundry     : Svetoslav Simov
Foundry URL : httpfontfabriccom
</metadata>
<defs>
<font id="HeroRegular" horiz-adv-x="1261" >
<font-face units-per-em="2048" ascent="1536" descent="-512" />
<missing-glyph horiz-adv-x="559" />
<glyph unicode=" "  horiz-adv-x="559" />
<glyph unicode="&#x09;" horiz-adv-x="559" />
<glyph unicode="&#xa0;" horiz-adv-x="559" />
<glyph unicode="!" horiz-adv-x="374" d="M70 51q0 -41 40 -58q21 -9 42 -9l37 7q40 15 40 60v70q0 45 -40 62q-19 8 -38 9l-41 -10q-40 -18 -40 -61v-70zM70 344v903q0 47 39 66q19 9 37 9q20 0 39 -10q38 -19 38 -65v-903q0 -45 -38 -62q-18 -8 -37 -9q-20 0 -39 10q-39 18 -39 61z" />
<glyph unicode="&#x22;" horiz-adv-x="479" d="M43 1042v220q0 47 36 66q18 10 36 10l36 -10q36 -19 35 -66v-220q0 -43 -35 -61q-18 -9 -36 -9l-36 9q-36 18 -36 61zM279 1042v220q0 47 34 66q17 10 35 10l35 -10q35 -19 35 -66v-220q0 -43 -35 -61q-17 -9 -35 -9l-35 9q-34 18 -34 61z" />
<glyph unicode="#" horiz-adv-x="1064" d="M27 485q0 29 23.5 50.5t51.5 21.5h111l35 193h-99q-47 0 -65 34q-9 17 -9 35t9 36q18 36 65 38h123l31 176q20 119 29 178q6 66 76 66q72 0 67 -86l-59 -334h272l62 354q6 47 45 61q13 5 25 4q24 0 45 -17q24 -19 24 -48q0 -9 -2 -20l-60 -334h93q45 0 63 -35 q9 -18 10 -36q0 -17 -9 -35q-17 -36 -64 -37h-115l-33 -193h100q31 0 53.5 -19.5t22.5 -52t-20.5 -52t-55.5 -19.5h-124l-60 -361q-14 -47 -52 -63q-16 -7 -30 -7q-20 0 -37 14q-22 18 -22 51q0 9 2 20l57 346h-272l-64 -369q-4 -55 -59 -61q-9 -1 -17 -2q-40 0 -61 34 q-12 23 -4 50l59 348h-86q-29 0 -52 20t-23 51zM348 551h291l35 205h-289z" />
<glyph unicode="$" horiz-adv-x="1390" d="M72 274q-3 10 -3 20q0 28 23 48q24 21 54 21q8 0 16 -2q39 -7 47 -50q27 -90 146 -146q116 -54 221 -54h8v469q-92 8 -151.5 17t-130.5 31.5t-111.5 56.5t-68.5 93.5t-28 138.5q0 164 151.5 258.5t338.5 106.5v96q0 45 33 64q17 9 35 9l33 -8q34 -17 34 -65v-98 q373 -29 465 -252q5 -13 5 -24q0 -22 -19 -38q-25 -23 -59 -23h-8q-40 3 -52 36q-59 152 -332 172v-453q96 -8 155.5 -16t135 -30.5t118.5 -55.5t74 -91.5t31 -135.5q0 -102 -46 -179t-125 -120t-164 -65.5t-179 -27.5v-108q0 -39 -34 -57q-18 -10 -36 -10l-32 8 q-34 16 -33 59v111q-82 4 -158 21t-151.5 50t-129 90t-73.5 133zM242 913q0 -55 23.5 -93t75.5 -59.5t104.5 -30.5t138.5 -17v438q-78 -4 -151 -26.5t-132 -78t-59 -133.5zM719 111q92 6 169 29.5t137 83t60 143.5q0 55 -27.5 94t-83.5 59.5t-112.5 30.5t-142.5 16v-456z " />
<glyph unicode="%" horiz-adv-x="1257" d="M25 1042q0 115 76.5 202t197.5 87q115 0 194.5 -83t79.5 -206q0 -115 -76.5 -204.5t-197.5 -89.5q-117 0 -195.5 82.5t-78.5 211.5zM82 11q-4 12 -4 24q0 22 14 45l893 1251q18 29 49 29h7q36 -4 53 -33q8 -13 7 -29q0 -18 -9 -38l-887 -1260q-26 -31 -58 -31q-6 0 -13 1 q-40 7 -52 41zM152 1042q0 -66 40.5 -118t106.5 -52q63 0 102 47.5t43 124.5q-2 63 -42 112.5t-103 49.5q-61 0 -104 -48t-43 -116zM604 274q0 115 77 202t198 87q115 0 194.5 -83t79.5 -206q0 -115 -77 -204.5t-197 -89.5q-117 0 -196 82.5t-79 211.5zM731 274.5 q0 -65.5 41 -118t107 -52.5q63 0 102 47.5t43 124.5q-2 63 -42 112.5t-103 49.5q-61 0 -104.5 -49t-43.5 -114.5z" />
<glyph unicode="&#x26;" d="M49 367q0 104 67.5 185t170.5 97q-98 20 -153.5 104.5t-55.5 184.5q0 127 75.5 215t183 126t234.5 38q131 0 236.5 -30t181.5 -107.5t76 -194.5q0 -41 -35 -58q-17 -9 -35 -9l-34 9q-35 17 -35 58q0 104 -101.5 151.5t-253.5 47.5q-141 0 -246.5 -66.5t-105.5 -181.5 q0 -227 350 -227h590q39 0 58 -33q10 -18 10 -36q0 -15 -7 -31q-15 -34 -61 -34h-84v-210q0 -111 -42 -191t-116.5 -124t-160.5 -64.5t-189 -20.5q-98 0 -184 20.5t-164 63.5t-124 124t-46 194zM186 362q0 -137 119 -202.5t264 -65.5q90 0 169 21.5t141.5 85t62.5 161.5v213 h-373q-82 0 -142 -8t-118.5 -28.5t-90.5 -65.5t-32 -111z" />
<glyph unicode="'" horiz-adv-x="309" d="M68 1040v220q0 45 34 63q17 9 35 9l35 -9q35 -18 35 -63v-220q0 -43 -35 -60q-17 -9 -35 -9l-35 9q-34 17 -34 60z" />
<glyph unicode="(" horiz-adv-x="540" d="M45 588q0 209 77 405.5t216 327.5q28 26 60 26q8 0 17 -1q42 -8 51 -42q2 -7 2 -14q0 -29 -30 -65q-117 -102 -179 -275.5t-62 -360t63.5 -351t183.5 -267.5v2q30 -23 30 -60q0 -29 -21 -52q-27 -24 -53 -24t-50 26q-147 129 -226 321.5t-79 403.5z" />
<glyph unicode=")" horiz-adv-x="555" d="M20 -104q-2 7 -1 14q0 30 28 57q125 96 187.5 261t62.5 354q0 190 -65.5 367t-186.5 282q-26 23 -26 51q0 10 4 21q12 41 50 50q9 2 17 2q29 0 55 -24q145 -127 223 -326.5t78 -412.5t-78.5 -407.5t-224.5 -321.5q-23 -23 -49 -23q-12 0 -24 4q-42 15 -50 52z" />
<glyph unicode="*" horiz-adv-x="565" d="M31 1175q0 30 26 44q13 7 30 6q19 0 42 -8l86 -56l-2 96q0 43 31 61q15 9 30 9l31 -9q31 -17 29 -58l-4 -103l67 64q21 17 43 16q12 0 25 -5q35 -15 37 -48v-4q0 -31 -37 -60l-76 -53l86 -51q32 -16 32 -45q0 -12 -5 -26q-16 -41 -53 -41q-6 0 -13 1q-18 2 -37 15l-77 63 l6 -113q0 -41 -31 -58q-15 -9 -30 -9t-29 9q-25 15 -26 50q0 5 1 10l2 111l-74 -68q-24 -16 -44 -15q-26 0 -48 24q-20 21 -19 41q0 18 15 36q10 12 29 21l92 45l-94 51q-41 20 -41 57z" />
<glyph unicode="+" horiz-adv-x="1091" d="M70 596q0 33 20.5 51.5t52.5 18.5h306v309q0 31 19 51.5t54 20.5q31 0 52.5 -21.5t21.5 -50.5v-309h305q47 0 66 -34q9 -17 9 -34t-9 -35q-18 -35 -66 -37h-305v-307q0 -33 -21.5 -53.5t-52.5 -20.5q-74 0 -73 74v307h-306q-31 0 -52 20.5t-21 49.5z" />
<glyph unicode="," horiz-adv-x="284" d="M-8 -104l84 196q18 43 60 44h3q40 0 63 -32q13 -18 12 -36q0 -17 -9 -35l-92 -193q-20 -43 -59 -45h-4q-35 0 -55 29q-12 17 -12 36q0 17 9 36z" />
<glyph unicode="-" horiz-adv-x="747" d="M75 572q-9 16 -10 34q0 18 11 35q20 35 67 35h414q49 0 70 -35q10 -17 10 -34.5t-10 -34.5q-20 -34 -70 -33h-414q-49 -1 -68 33z" />
<glyph unicode="." horiz-adv-x="288" d="M23 84q0 39 25.5 62.5t66.5 23.5q39 0 63.5 -23.5t24.5 -62.5t-24.5 -62.5t-63.5 -23.5q-41 0 -66.5 23.5t-25.5 62.5z" />
<glyph unicode="/" horiz-adv-x="751" d="M-27 -100l615 1443q16 37 56 40t66.5 -25.5t10.5 -69.5l-619 -1446q-23 -45 -62.5 -46t-62 32t-4.5 72z" />
<glyph unicode="0" horiz-adv-x="1097" d="M53 469v371q-2 227 139.5 355t336 128t337 -128t140.5 -355v-371q2 -229 -140.5 -357t-337 -128t-336 128t-139.5 357zM195 469q-2 -170 96 -261t235 -91q141 0 239.5 87t96.5 265v371q2 176 -96 263t-240 87q-139 0 -236 -87t-95 -263v-371z" />
<glyph unicode="1" horiz-adv-x="661" d="M102 793q-7 15 -7 32q0 21 11 43l297 404q27 30 65 30q13 0 28 -4q55 -14 55 -69v-1190q0 -39 -35 -55q-17 -8 -35 -9l-35 9q-35 16 -34 55v1003l-174 -245q-29 -42 -70 -43q-3 0 -5 1q-45 3 -61 38z" />
<glyph unicode="2" horiz-adv-x="1163" d="M93 54q-5 14 -5 28q0 33 31 57l606 457q80 57 121 145q30 65 30 133q0 24 -4 48q-16 121 -102 185t-209 64q-283 0 -313 -237q-4 -45 -42 -58q-14 -5 -27 -5q-23 0 -45 15q-29 20 -28 55v13q23 176 147 265.5t308 89.5q170 0 296 -99.5t157 -267.5q6 -37 6 -73 q0 -90 -40 -175q-56 -119 -163 -198l-246 -193l-270 -178l301 12h367q49 0 69 -34q11 -17 11 -35q0 -17 -10 -33q-19 -35 -68 -35h-805q-56 4 -73 54z" />
<glyph unicode="3" horiz-adv-x="1161" d="M74 367q-1 6 -1 11q0 51 52 64q14 4 26 4q33 0 52 -28q8 -12 8 -29q29 -262 344 -262q160 0 250 115q70 89 69 194q0 31 -6 64q-27 143 -166 219q-47 20 -98 20q-59 0 -106 -24l4 2q-19 -12 -40 -12q-18 0 -37 10q-40 20 -40 63q0 37 25 58l360 333h-588q-41 0 -58 34 q-9 17 -9 33.5t9 33.5q17 33 58 33h727q55 0 76 -46q6 -14 6 -28q0 -31 -30 -64l-269 -262l-112 -63q46 11 88 11q74 0 140 -34q103 -53 155.5 -152.5t52.5 -213.5q0 -188 -130 -323.5t-329 -135.5q-446 0 -483 375z" />
<glyph unicode="4" horiz-adv-x="1048" d="M34 333q-10 15 -10 34q0 27 21 61v-2l506 862q16 37 57 39h5q38 0 61 -30q12 -16 12 -35t-12 -41l-481 -797h612v825q0 29 19.5 47.5t49.5 18.5q29 0 49.5 -19.5t20.5 -46.5v-1200q0 -41 -35 -58q-18 -9 -36 -9l-33 8q-35 16 -35 57v248h-680q-67 0 -91 38z" />
<glyph unicode="5" horiz-adv-x="1148" d="M55 348q-2 12 -2 23q0 36 26 57q21 17 45 17q14 0 28 -6q39 -15 45 -64q20 -147 106 -202.5t232 -55.5q154 0 241.5 101t87.5 231q0 127 -89 219t-251 92h-368q-31 0 -52.5 18.5t-21.5 46.5v394q0 84 90 84h668q45 0 64 -35q10 -18 10 -36q0 -17 -9 -34q-18 -35 -65 -35 h-617v-270h301q231 0 359.5 -130t128.5 -317q0 -182 -129 -321t-346 -139q-201 0 -328 88t-154 274z" />
<glyph unicode="6" horiz-adv-x="1150" d="M90 403v383q0 156 46 264.5t171 188.5q126 75 277 75q31 0 62 -3q187 -18 308 -142q20 -20 20 -42q0 -11 -4 -22q-13 -36 -47 -44q-8 -2 -15 -2q-26 0 -54 22q-94 96 -274 97q-102 0 -183 -48q-166 -98 -166 -335v-74q55 94 147.5 140t192.5 46q197 0 335 -129 q140 -131 141 -331q0 -207 -144 -337q-145 -132 -350 -133q-195 0 -329 122t-134 304zM236 403q0 -131 93 -209.5t226 -78.5q139 0 240.5 93t101.5 245q0 131 -94 223t-230 92q-162 0 -249.5 -103.5t-87.5 -261.5z" />
<glyph unicode="7" horiz-adv-x="1058" d="M49 1193q-9 17 -9 35q0 19 10 38q19 37 63 37h764q68 0 89 -36q8 -14 8 -31q0 -27 -22 -62l-643 -1149q-20 -35 -65 -35q-27 0 -50.5 21.5t-23.5 47.5q0 20 8 33l604 1065h-669q-46 0 -64 36z" />
<glyph unicode="8" horiz-adv-x="1273" d="M86 379q0 119 75 193.5t201 97.5v4q-109 29 -172 104.5t-63 186.5q0 117 73.5 200.5t184.5 121.5q108 37 234 37h7q130 -1 240.5 -39t184 -122t73.5 -198q0 -109 -52 -179.5t-167 -111.5v-4q123 -20 192.5 -100.5t69.5 -194.5q0 -104 -47 -182t-128 -121t-173 -63.5 t-194 -20.5q-100 0 -191.5 20.5t-171.5 63.5t-128 122t-48 185zM229 375q0 -90 69 -149.5t153 -80t176 -20.5q66 0 129 11t125.5 38t101.5 78t39 123q0 86 -82 144.5t-198 72.5q-60 7 -120 7q-56 0 -112 -6q-117 -13 -199 -72.5t-82 -145.5zM268 969q0 -86 74 -144.5 t178 -71.5q52 -7 105 -7l104 7q104 13 178 71.5t74 144.5t-73.5 144t-178.5 72q-52 7 -104 6l-105 -6q-104 -13 -178 -71.5t-74 -144.5z" />
<glyph unicode="9" horiz-adv-x="1144" d="M61 829q0 207 145 337q146 132 345 132q145 0 262 -71q94 -57 148.5 -151.5t54.5 -203.5v-407q0 -221 -137.5 -355.5t-356.5 -134.5q-262 0 -387 150q-16 22 -16 45q0 14 6 29q16 39 51 45q6 1 12 1q28 0 54 -24q88 -109 282 -108q170 0 262.5 94t92.5 256v92 q-49 -90 -147.5 -137t-199.5 -47q-197 0 -332 128q-139 130 -139 330zM203 823q0 -133 97 -225t230 -92q150 0 245 82t95 196v86q0 162 -131 242q-80 51 -188 51q-141 0 -244.5 -94t-103.5 -246z" />
<glyph unicode=":" horiz-adv-x="323" d="M41 84q0 39 25.5 62.5t66.5 23.5q39 0 63.5 -23.5t24.5 -62.5t-24.5 -62.5t-63.5 -23.5q-41 0 -66.5 23.5t-25.5 62.5zM43 770q0 39 24.5 62.5t65.5 23.5t65.5 -23.5t24.5 -62.5t-24.5 -62.5t-65.5 -23.5t-65.5 23.5t-24.5 62.5z" />
<glyph unicode=";" horiz-adv-x="317" d="M-8 -104q-9 -19 -9 -36q0 -20 12 -36q20 -29 55 -29h4q38 2 59 45l92 193q9 17 9 33q0 21 -15 39q-26 33 -68 33h-3q-44 -1 -62 -44zM43 770q0 39 24.5 62.5t65.5 23.5t65.5 -23.5t24.5 -62.5t-24.5 -62.5t-65.5 -23.5t-65.5 23.5t-24.5 62.5z" />
<glyph unicode="&#x3c;" horiz-adv-x="634" d="M53 578q-33 27 -33 57q0 31 35 65l355 340q24 28 54 28q8 0 16 -2q40 -9 50 -43q3 -8 3 -17q0 -27 -23 -58l-330 -311l328 -301q24 -24 24 -51q0 -10 -4 -21q-12 -39 -49 -47q-9 -2 -17 -2l-56 21z" />
<glyph unicode="=" horiz-adv-x="905" d="M77 517q17 34 62 36h580q27 0 45 -13.5t22 -32.5q2 -10 2 -19.5t-2 -19.5q-4 -19 -22.5 -33.5t-44.5 -16.5h-580q-43 0 -61 33q-9 17 -10 34q1 16 9 32zM79 736q-9 17 -9 33.5t9 33.5q17 33 60 33h580q45 0 63 -33q9 -16 9.5 -33t-9.5 -34q-18 -34 -63 -34h-580 q-43 0 -60 34z" />
<glyph unicode="&#x3e;" horiz-adv-x="671" d="M92 336l324 301l-326 311q-23 26 -23 53q0 11 4 22q13 38 49 43q5 1 10 1q31 0 60 -27l355 -340q35 -34 35 -65q0 -30 -33 -57l-352 -342q-20 -18 -44 -22q-5 -1 -10 -1q-18 0 -32 9q-18 11 -31 29q-10 14 -10 32q0 29 24 53z" />
<glyph unicode="?" horiz-adv-x="1234" d="M29 1036q27 82 86 141.5t137 89t152.5 42t156.5 12.5q98 0 196.5 -25.5t184.5 -76t138 -135.5q50 -82 51 -183q0 -81 -29 -144q-27 -58 -83 -100.5t-96 -64t-118 -53.5q-68 -27 -103.5 -46.5t-68.5 -55.5t-33 -83v-49q0 -39 -37 -56q-19 -9 -38 -9l-36 8q-37 16 -36 57 v51q0 63 21.5 110.5t71.5 83.5t86 54.5t105 48.5q57 25 90 41.5t73 45t59 67.5q22 43 22 94q0 138 -132 212q-134 75 -290 75q-137 0 -249.5 -45t-147.5 -154q-10 -35 -49 -39q-5 -1 -11 0q-32 0 -57 22q-20 18 -20 42q0 10 4 22zM442 49v53q0 33 27 51.5t58.5 18.5 t58 -18.5t26.5 -51.5v-53q0 -45 -42 -60q-20 -7 -39 -7q-23 0 -46 9q-43 17 -43 58z" />
<glyph unicode="@" horiz-adv-x="1568" d="M43 449q0 295 210 502.5t509 207.5q303 0 509 -199.5t206 -510.5q0 -78 -12.5 -156t-40 -155t-81 -125t-124.5 -48q-156 0 -175 164q-33 -88 -118.5 -130t-186.5 -42q-188 0 -330.5 140.5t-144.5 336.5q0 217 135.5 352.5t335.5 135.5q94 0 181.5 -44t123.5 -128v41 q0 35 37 48q17 6 33 6q20 0 40 -9q36 -16 36 -56v-637q0 -45 33 -45q41 0 67.5 42t36.5 110.5t13 112t3 86.5q0 250 -164.5 414.5t-412.5 164.5q-240 0 -409 -170t-169 -409q0 -141 65.5 -267.5t180.5 -210.5q156 -104 332 -104q109 0 190 33q14 5 26 5q21 0 39 -16 q25 -22 25 -55q0 -44 -47 -61q-100 -39 -233 -39q-225 0 -414 131q-143 102 -224 257t-81 327zM408 434q0 -139 101 -240.5t234 -101.5q117 0 207 81t90 192v122q0 133 -88 219.5t-207 86.5q-150 0 -243.5 -97.5t-93.5 -261.5z" />
<glyph unicode="A" horiz-adv-x="1427" d="M4 80l619 1218q18 39 67 39q45 0 66 -39l616 -1212q12 -21 13 -39q0 -28 -33 -47q-26 -15 -49.5 -15t-45.5 15q-14 10 -22 27l-160 317h-770l-166 -324q-18 -37 -58 -37h-3q-38 0 -64 28q-16 18 -16 41q0 13 6 28zM367 473h645l-322 645z" />
<glyph unicode="B" horiz-adv-x="1406" d="M158 74v1155q0 31 22.5 52.5t52.5 21.5h486q63 0 123.5 -8.5t128 -33t118 -62.5t83 -102.5t32.5 -148.5q0 -180 -157 -243q252 -80 251 -318q0 -109 -46 -188.5t-124.5 -120.5t-168 -59.5t-193.5 -18.5h-533q-31 0 -53 21.5t-22 52.5zM307 133h459q379 0 379 254 q0 117 -88 174t-230 57h-520v-485zM307 752h418q330 0 330 196q0 61 -34 107.5t-88 70t-107.5 33.5t-106.5 10h-412v-417z" />
<glyph unicode="C" horiz-adv-x="1366" d="M80 670q0 250 157.5 432t397.5 219q64 9 124 9q291 0 486 -206q18 -21 18 -43q0 -13 -6 -25q-16 -36 -52 -43q-8 -2 -15 -2q-27 0 -51 21q-146 155 -387 155q-45 0 -95 -5q-195 -31 -312.5 -164t-117.5 -350q0 -231 154 -390t369 -159q119 0 237 59q102 53 168 137 q19 28 51 28q6 0 13 -1q41 -6 58 -38q8 -15 8 -31q0 -19 -11 -40q-80 -115 -221 -182q-162 -74 -308 -74q-270 0 -467.5 198t-197.5 495z" />
<glyph unicode="D" horiz-adv-x="1345" d="M80 88v1129q0 35 27.5 60.5t66.5 25.5h447q195 0 337 -96.5t207.5 -242t65.5 -313.5t-65.5 -313t-208 -241.5t-336.5 -96.5h-447q-39 0 -66.5 26.5t-27.5 61.5zM227 133h394q217 0 338.5 154.5t121.5 363.5q0 211 -121.5 365.5t-338.5 154.5h-394v-1038z" />
<glyph unicode="E" horiz-adv-x="1308" d="M156 90v1124q0 37 26.5 63t67.5 26h864q41 0 57 -33q8 -16 8 -32q0 -17 -9 -34q-17 -33 -58 -33h-809v-460h770q39 0 55 -33q8 -17 9 -34q0 -16 -8 -32q-15 -33 -56 -32h-770v-445h809q41 0 60 -34q11 -18 11 -36q0 -15 -7 -31q-16 -34 -64 -34h-862q-41 0 -67.5 26.5 t-26.5 63.5z" />
<glyph unicode="F" horiz-adv-x="1263" d="M158 51v1163q0 35 26.5 62t63.5 27h844q41 0 57 -33t0 -64.5t-57 -31.5h-787v-515h748q37 0 53 -31.5t1 -63.5t-54 -32h-748v-479q0 -49 -37 -68.5t-73.5 0t-36.5 66.5z" />
<glyph unicode="G" horiz-adv-x="1443" d="M72 664q0 233 156.5 421.5t389.5 233.5q45 6 107 6q141 0 270 -49t211 -143q19 -23 19 -48q0 -13 -5 -26q-15 -39 -51 -46q-7 -1 -13 -2l-56 25q-84 96 -212 134q-71 21 -139 21q-55 0 -108 -13q-176 -41 -299 -183.5t-123 -337.5q2 -215 152.5 -373.5t349.5 -162.5h9 q112 0 216 47q109 49 174 137v273h-368q-45 0 -62 33q-8 16 -8 32q0 18 10 36q18 34 60 34h434q78 0 78 -76v-342q0 -45 -23 -68q-90 -119 -230 -183q-136 -63 -283 -62h-9q-268 2 -461 198q-187 191 -187 466q1 9 1 18z" />
<glyph unicode="H" horiz-adv-x="1398" d="M152 59v1194q0 47 36 66q18 9 36 9l38 -10q37 -19 37 -65v-559h754v559q0 47 37 66q18 9 36.5 9t37.5 -9q38 -18 38 -66v-1194q0 -47 -38 -67q-19 -11 -38 -11q-18 0 -36 10q-37 19 -37 68v506h-754v-506q0 -49 -37 -67q-17 -9 -35 -9l-39 11q-36 20 -36 65z" />
<glyph unicode="I" horiz-adv-x="450" d="M141 1276q0 37 24 57q22 20 50 20h3q30 -1 53.5 -21.5t23.5 -55.5v-1225q0 -45 -39 -63q-20 -9 -40 -10q-19 0 -37 9q-38 17 -38 64v1225z" />
<glyph unicode="J" horiz-adv-x="1185" d="M-16 410q0 41 33 63q20 12 41 12q17 0 34 -8q39 -18 43 -69q8 -135 104.5 -215t229.5 -80q154 0 270.5 98t116.5 242v716h-393q-49 0 -69 34q-10 17 -9.5 34t9.5 34q19 34 69 34h461q27 0 48 -19.5t25 -48.5v-784q2 -201 -158.5 -339.5t-369.5 -138.5q-195 0 -335 123 q-150 132 -150 312z" />
<glyph unicode="K" horiz-adv-x="1284" d="M154 57v1192q0 45 37 63q18 8 37 8t38 -9q37 -18 37 -62v-651l199 201l557 499q26 23 55 24q12 0 25 -4q43 -13 51 -50q2 -8 2 -16q0 -29 -25 -56l-542 -481l581 -606q27 -32 27 -61q0 -11 -3 -21q-13 -39 -53 -42q-4 0 -8 -1q-36 0 -71 28l-578 611l-217 -191v-375 q0 -43 -37 -62q-19 -10 -38 -10q-18 0 -37 9q-37 18 -37 63z" />
<glyph unicode="L" horiz-adv-x="1179" d="M156 76v1175q0 45 38 64q19 9 37 9l38 -9q38 -18 38 -64v-1116h766q49 0 70 -34q10 -17 10 -33.5t-10 -33.5q-20 -34 -70 -34h-840q-77 0 -77 76z" />
<glyph unicode="M" horiz-adv-x="1642" d="M160 55v1180q0 66 54 79q11 3 20 2q40 0 65 -44l500 -778l495 778q28 44 67 44q10 0 21 -3q53 -14 54 -78v-1180q0 -47 -38 -65q-19 -9 -38 -9t-37 9q-37 18 -37 65v932l-418 -653q-25 -45 -71.5 -45t-69.5 45l-418 651v-930q0 -47 -38 -65q-19 -9 -37.5 -9t-36.5 9 q-37 18 -37 65z" />
<glyph unicode="N" horiz-adv-x="1415" d="M145 57v1174q0 49 31 74q22 18 50 17q10 0 21 -2q40 -9 64 -46l789 -1055l-21 309v725q0 41 39 59q20 9 40 9l38 -8q39 -16 39 -60v-1175q0 -49 -37 -72q-26 -16 -56 -16q-12 0 -26 3q-45 9 -65 44l-766 1026l16 -283v-723q0 -47 -39 -67q-20 -11 -40 -11l-38 10 q-39 19 -39 68z" />
<glyph unicode="O" horiz-adv-x="1525" d="M76 674q0 244 150.5 426t391.5 221q50 7 104.5 7t113.5 -7q240 -37 399.5 -218t159.5 -429q0 -309 -192.5 -503t-463.5 -194q-285 0 -474 190t-189 507zM229 668q0 -248 144.5 -398.5t365.5 -150.5q215 0 359.5 149.5t144.5 399.5q0 199 -118.5 342t-307.5 174 q-46 6 -90.5 6t-87.5 -6q-186 -29 -298 -168t-112 -348z" />
<glyph unicode="P" horiz-adv-x="1310" d="M156 53v1180q0 31 22.5 51.5t52.5 20.5h445q250 0 385 -139.5t135 -331.5q0 -197 -135 -323t-391 -126h-367v-330q0 -45 -37 -62q-18 -9 -37 -9l-36 9q-37 17 -37 60zM303 518h367q190 0 287 93q93 89 94 212v11q-2 135 -102.5 236t-270.5 101h-375v-653z" />
<glyph unicode="Q" horiz-adv-x="1542" d="M82 674q0 250 145.5 429t388.5 218q52 6 106.5 6t111.5 -6q240 -37 398.5 -222.5t158.5 -424.5q-4 -293 -148 -447l117 -121q23 -23 23 -49q0 -11 -4 -22q-13 -39 -50 -47q-9 -2 -17 -2l-57 20l-110 117q-182 -145 -408 -146q-279 0 -467 189t-188 508zM231 668 q0 -242 147.5 -397.5t358.5 -155.5q172 0 310 114l-115 117q-23 23 -23 49q0 11 4 24q14 40 52 47q7 1 13 1q30 0 58 -27l107 -106q98 123 98 334q0 197 -120 341t-308 175q-43 6 -87 6t-89 -6q-182 -29 -294 -173t-112 -343z" />
<glyph unicode="R" horiz-adv-x="1345" d="M156 57v1176q0 33 20.5 52.5t54.5 19.5h486q254 0 394 -125t140 -316q0 -160 -90 -264t-274 -135l332 -359q27 -27 27 -55q0 -10 -4 -20q-13 -39 -52 -45q-7 -1 -14 -1q-31 0 -60 23l-414 449h-397v-398q0 -45 -38 -63q-19 -9 -37.5 -9t-36.5 9q-37 18 -37 61zM305 586 h414q193 0 289 78q92 75 92 190q0 139 -105 227q-102 86 -276 86h-414v-581z" />
<glyph unicode="S" horiz-adv-x="1323" d="M45 287q-12 43 22.5 68.5t77.5 16t52 -47.5q37 -115 163.5 -161t280.5 -46q74 0 144.5 12t141 40t114.5 81t44 127q0 33 -8 59.5t-29.5 46t-40 33.5t-59.5 26l-63 17q-23 6 -77 12.5l-77.5 9.5t-85.5 7q-92 8 -143 13t-132 19.5t-126 38t-93.5 60.5t-70 93t-21.5 130 q0 186 174.5 288.5t387.5 102.5q465 0 569 -284q14 -39 -14.5 -65t-69.5 -21.5t-55 36.5q-72 182 -428 183q-57 0 -122 -12.5t-130.5 -38t-108.5 -75.5t-43 -116q0 -43 14.5 -76t49 -55.5t67.5 -36.5t93.5 -23.5t101.5 -13.5t116 -10q270 -25 367 -57q215 -72 215 -289 q0 -111 -57.5 -195t-150.5 -129t-192.5 -65.5t-201.5 -20.5q-119 0 -233.5 25.5t-223 101.5t-139.5 191z" />
<glyph unicode="T" horiz-adv-x="1206" d="M-14 1198q-9 17 -9.5 35t9.5 36q18 36 63 36h1061q47 0 67 -36q10 -18 9.5 -36t-9.5 -35q-19 -35 -67 -35h-457q0 -184 1 -555.5t1 -556.5q0 -35 -24.5 -55.5t-53 -20.5t-51 19.5t-22.5 56.5v1112h-455q-45 0 -63 35z" />
<glyph unicode="U" horiz-adv-x="1554" d="M152 578v673q0 43 37 61q18 8 37 8q20 0 40 -9q39 -18 39 -62v-671q0 -106 39 -193.5t102.5 -141t144.5 -82t165 -28.5t164.5 28.5t144 82t102.5 140.5t39 194v671q0 47 38 67q19 10 39 10q19 0 38 -9q39 -18 39 -66v-673q0 -141 -52.5 -257t-138.5 -188t-192.5 -109.5 t-221 -37.5t-221 37.5t-192.5 109.5t-138 188t-52 257z" />
<glyph unicode="V" horiz-adv-x="1400" d="M16 1221q-7 16 -7 31q0 22 17 41q25 29 64 29h7q44 -3 63 -44l526 -1049l514 1045q16 39 57 44q6 1 12 1q33 0 58 -26q19 -20 19 -45q0 -13 -5 -27l-589 -1194q-23 -43 -67 -44q-45 0 -71 50z" />
<glyph unicode="W" horiz-adv-x="2396" d="M37 1225q-6 15 -6 28q0 26 21 46q28 28 66 29q5 0 10 -1q44 -4 60 -45l459 -1057l445 912q16 45 67 45t76 -43l446 -914l457 1057q16 41 60 48q8 1 15 2q33 0 58 -25q21 -21 21 -52q0 -14 -4 -30l-537 -1207q-23 -47 -70 -48h-2q-46 0 -67 46l-449 926l-450 -926 q-18 -41 -71 -43h-4q-49 0 -69 45z" />
<glyph unicode="X" horiz-adv-x="1314" d="M55 109l488 557l-473 544q-18 20 -18 42q0 13 6 27q17 36 55 42q7 1 13 1q30 0 56 -24l457 -534l455 532q22 27 52 27q9 0 18 -2q42 -10 56 -44q4 -11 4 -23q0 -23 -18 -48l-475 -540l490 -560q23 -28 22 -56q0 -12 -4 -23q-14 -39 -53 -42q-3 0 -7 -1q-36 0 -73 32 l-467 543l-473 -543q-23 -23 -48 -29q-11 -3 -20 -3q-13 0 -24 6q-18 10 -31 27q-11 15 -11 36q0 31 23 56z" />
<glyph unicode="Y" horiz-adv-x="1263" d="M12 1287q23 36 64 36t71 -35l463 -633l469 635q23 35 62 35h5q42 -2 60 -34q8 -14 9 -31q0 -20 -13 -43l-514 -691v-458q0 -35 -23.5 -55.5t-52.5 -20.5q-33 0 -54 19.5t-21 56.5v458l-519 686q-16 22 -16 43q0 16 10 32z" />
<glyph unicode="Z" horiz-adv-x="1257" d="M40 39q-6 13 -6 26q0 26 23 54l918 1050h-830q-43 0 -60 33q-9 16 -9 33t9 34q17 34 60 36h975q61 0 79 -39q6 -12 6 -26q0 -28 -25 -58l-926 -1041h874q45 0 65 -33q10 -17 10 -36q0 -17 -9 -34q-18 -36 -66 -38h-1011q-60 0 -77 39z" />
<glyph unicode="[" horiz-adv-x="524" d="M121 -127v1495q0 35 25.5 58.5t60.5 23.5h213q53 0 75 -35q11 -17 10.5 -34.5t-10.5 -34.5q-22 -35 -75 -35h-154v-1383h154q51 0 72 -33q10 -16 10 -34t-12 -35q-22 -35 -70 -35h-213q-35 0 -60.5 24.5t-25.5 57.5z" />
<glyph unicode="\" horiz-adv-x="696" d="M-33 1325q-8 18 -7 33q0 22 15 41q23 27 59 27q5 0 9 -1q41 -4 59 -47l613 -1464q9 -20 9 -38q0 -21 -13 -39q-22 -28 -58 -28q-5 0 -9 1q-42 4 -62 47h-2z" />
<glyph unicode="]" horiz-adv-x="524" d="M25 -176q-9 16 -9 33q0 18 11 37q20 35 65 34h148v1389h-148q-41 0 -58 34q-9 17 -9 33.5t9 32.5q17 33 58 33h213q35 0 60.5 -24.5t25.5 -57.5v-1497q0 -33 -25.5 -57.5t-60.5 -24.5h-213q-49 0 -67 35z" />
<glyph unicode="^" horiz-adv-x="743" d="M62 1034q-3 10 -2 19q0 23 16 47l207 258q33 39 71.5 39t71.5 -37l207 -262q18 -21 18 -42q0 -12 -6 -24q-16 -33 -52 -35h-5q-33 0 -62 27l-174 221l-170 -221q-27 -31 -59 -31q-6 0 -12 1q-40 7 -49 40z" />
<glyph unicode="_" horiz-adv-x="888" d="M-10 -113q-9 17 -9 34q0 18 10 35q19 34 62 34h707q41 0 58 -34q9 -17 9 -35q0 -17 -8 -34q-16 -35 -59 -34h-707q-45 -1 -63 34z" />
<glyph unicode="`" horiz-adv-x="614" d="M104 1444q20 39 61 41h4q37 0 67 -35l153 -193q12 -17 12 -34q0 -12 -6 -25q-14 -31 -46 -37q-6 -1 -12 -1q-27 0 -56 22l-166 184q-18 23 -19 47q0 15 8 31z" />
<glyph unicode="a" d="M74 545q4 158 87 288t228 185l-2 -2q84 39 197 39h22q229 -4 324 -160v78q0 33 19.5 53.5t54.5 20.5q33 0 54 -20.5t21 -53.5v-910q0 -33 -20.5 -53t-54.5 -20q-74 0 -74 73v99q-43 -86 -139.5 -136.5t-192.5 -50.5q-172 0 -295 88q-117 80 -175 205q-55 117 -55 257 q1 10 1 20zM223 543v-17q0 -206 150 -331q88 -68 211 -78q145 0 241.5 85t104.5 234v162q0 145 -90 227t-236 88h-7q-108 0 -204 -56q-98 -58 -139 -163q-27 -63 -31 -151z" />
<glyph unicode="b" horiz-adv-x="1265" d="M137 59v1237q0 33 23.5 52.5t51.5 19.5t51.5 -19.5t23.5 -52.5v-407q45 80 135 123t196 43q227 0 373 -144.5t152 -365.5v-17q0 -172 -81 -307q-85 -141 -249 -209l2 2q-92 -39 -197 -39q-100 0 -193 45.5t-142 135.5v-97q0 -72 -70 -71q-76 -1 -76 71zM287 436 q0 -145 99 -232t245 -87q125 10 211 78q152 126 151 337v11q-2 80 -30 151q-43 102 -140.5 160.5t-210.5 58.5q-141 -6 -233 -94t-92 -221v-162z" />
<glyph unicode="c" horiz-adv-x="1101" d="M72 559q12 227 160.5 368.5t381.5 141.5q223 0 377 -174q18 -20 18 -42q0 -13 -7 -26q-17 -35 -53 -41q-6 -1 -12 -1q-29 0 -54 24q-109 125 -285 125q-166 0 -270.5 -119t-104.5 -297q0 -164 88 -270q111 -135 295 -135q201 0 299 135q20 27 52 27q7 0 14 -2 q41 -7 54 -41q4 -11 4 -22q0 -25 -19 -52q-150 -182 -406 -183q-117 0 -226.5 47.5t-184.5 135.5q-122 152 -122 362q0 19 1 39z" />
<glyph unicode="d" horiz-adv-x="1263" d="M78 545q6 221 151.5 365.5t372.5 144.5q106 0 196.5 -43t135.5 -123v407q0 33 23.5 52.5t51 19.5t51 -19.5t23.5 -52.5v-1237q0 -72 -75 -71q-70 0 -70 71v97q-49 -90 -142.5 -135.5t-193.5 -45.5q-104 0 -196 39l2 -2q-164 68 -249 209q-81 135 -81 307v17zM227 543v-11 q0 -211 152 -337q86 -68 211 -78q145 0 244.5 87t99.5 232v162q0 133 -92 221t-234 94q-113 0 -210 -58t-140 -161q-29 -71 -31 -151z" />
<glyph unicode="e" horiz-adv-x="1267" d="M81 497q-1 15 -1 30q0 166 92 307q100 154 283 204q73 22 149.5 22t157.5 -22h2q174 -47 275.5 -183t103.5 -331v2q1 -6 0 -11q0 -32 -20 -55q-24 -28 -81 -28h-809q20 -131 123 -219t252 -88q160 0 273 86q25 23 56.5 22.5t49.5 -17.5q19 -18 20 -49q0 -29 -28 -56 q-131 -123 -350 -123h-15q-123 0 -234.5 47t-180.5 135q-109 144 -118 327zM227 557h772q-10 131 -85.5 224t-194.5 124h2q-54 15 -107 15l-114 -17q-121 -31 -192 -125t-81 -221z" />
<glyph unicode="f" horiz-adv-x="716" d="M26 924q-7 15 -8 30q0 16 9 32q16 32 53 32h108v45q0 94 52.5 165.5t127.5 103.5q58 25 124 25q19 0 39 -2q89 -9 159 -63q26 -22 26 -50q0 -8 -2 -16q-9 -38 -42 -48q-11 -3 -22 -4l-44 14q-47 35 -106 37h-5q-57 0 -106 -44q-51 -46 -51 -120v-43h197q35 0 49 -32 q7 -16 7 -31.5t-7 -30.5q-14 -31 -49 -31h-197v-836q0 -43 -38 -60q-19 -9 -37.5 -9t-37.5 9q-37 17 -37 60v836h-110q-37 0 -52 31z" />
<glyph unicode="g" horiz-adv-x="1265" d="M80 489v17q0 172 80 307q84 141 248 209q90 35 192 35t195.5 -40t140.5 -120v78q0 74 74 74q35 0 55 -20.5t20 -53.5v-926q0 -215 -142 -332.5t-363 -117.5q-242 0 -392 141q-30 28 -29 58q0 10 3 20q12 41 51 49q9 2 17 2q30 0 59 -23q76 -57 140.5 -79.5t150.5 -22.5 q152 0 256 78t104 227v111q-98 -176 -328 -180q-10 0 -20 -1q-107 0 -201 39q-141 57 -224 185t-87 286zM229 492q4 -88 31 -152q41 -104 139 -163q95 -56 204 -56h7h-2q139 6 233.5 96t94.5 219v162q0 205 -174 281q-74 35 -159 35q-18 0 -37 -2q-105 -9 -187 -72h2 q-152 -124 -152 -332v-16z" />
<glyph unicode="h" horiz-adv-x="1320" d="M137 61v1227q0 41 38 59q19 9 38 8l38 -8q38 -17 38 -59v-430q53 102 157.5 152.5t229.5 50.5q190 0 327.5 -124t137.5 -335v-541q0 -74 -74 -73q-35 0 -55.5 20.5t-20.5 52.5v541q0 137 -94 228.5t-223 91.5q-156 0 -270.5 -98.5t-114.5 -252.5v-510q0 -74 -74 -73 q-35 0 -56.5 20t-21.5 53z" />
<glyph unicode="i" horiz-adv-x="413" d="M119 1196v92q0 33 23.5 52.5t53 19.5t53 -19.5t23.5 -52.5v-92q0 -43 -38 -61q-19 -9 -39 -10q-19 0 -37 9q-39 17 -39 62zM121 53v922q0 41 38 59q19 9 38 10q18 0 36 -9q37 -17 37 -58v-924q0 -43 -37 -59q-18 -8 -36 -8q-19 0 -38 9q-38 17 -38 58z" />
<glyph unicode="j" horiz-adv-x="428" d="M-24 -326q-8 18 -8 34q0 38 46 63q74 41 99.5 95t25.5 134v61v916q0 31 20.5 50.5t55.5 19.5q29 0 51.5 -20.5t22.5 -49.5v-903q0 -82 -3 -126t-21.5 -107.5t-65.5 -111.5t-125 -89q-21 -8 -39 -8q-40 -1 -59 42zM137 1196v92q0 33 23.5 52.5t53.5 19.5t53.5 -19.5 t23.5 -52.5v-92q0 -43 -39 -61q-20 -9 -40 -10q-19 0 -37 9q-38 17 -38 62z" />
<glyph unicode="k" horiz-adv-x="1009" d="M137 61v1225q0 39 38 55q19 8 37.5 8.5t37.5 -8.5q37 -16 37 -55v-739l141 139l369 344q27 26 58 26q11 0 22 -3q43 -12 51 -49q2 -7 1 -15q0 -30 -26 -61l-383 -355l422 -464q21 -25 21 -50q0 -14 -7 -28q-18 -39 -57 -42q-3 0 -6 -1q-35 0 -68 32l-417 469l-121 -108 v-320q0 -43 -37 -62q-19 -10 -38 -10q-18 0 -37 9q-38 18 -38 63z" />
<glyph unicode="l" horiz-adv-x="413" d="M121 61v1229q0 29 21.5 49.5t54.5 20.5q31 0 52 -20.5t21 -49.5v-1229q0 -29 -21.5 -49t-51.5 -20q-33 0 -54.5 20t-21.5 49z" />
<glyph unicode="m" horiz-adv-x="2187" d="M156 59v916q0 29 21.5 50.5t51.5 21.5q33 0 52.5 -20.5t19.5 -51.5v-141q119 213 385 213q141 0 256 -70t160 -201q53 131 172 201t262 70q188 0 330.5 -119t142.5 -320v-549q0 -33 -20.5 -52t-55.5 -19q-74 0 -73 71v543q-2 131 -94.5 217t-223.5 86 q-164 0 -274.5 -110.5t-110.5 -284.5v-451q0 -33 -20.5 -52t-55 -19t-55 19.5t-20.5 51.5v508q0 199 -142 289q-76 47 -176 47q-156 0 -269.5 -107.5t-113.5 -275.5v-461q0 -45 -38 -62q-18 -8 -36 -9q-19 0 -38 10q-37 18 -37 61z" />
<glyph unicode="n" horiz-adv-x="1320" d="M137 59v918q0 45 37 63q18 9 37 10l37 -10q37 -18 37 -65v-127q53 106 158.5 159.5t232.5 53.5q190 0 327.5 -124t137.5 -335v-543q0 -72 -74 -71q-35 0 -55.5 19.5t-20.5 51.5v543q0 137 -94 228.5t-223 91.5q-154 0 -269.5 -112t-115.5 -275v-476q0 -72 -74 -71 q-35 0 -56.5 19t-21.5 52z" />
<glyph unicode="o" horiz-adv-x="1247" d="M74 559q16 174 114.5 304t264.5 177q63 18 155 19q84 0 152 -19q166 -47 266 -177t115 -304q1 -19 1 -38q0 -207 -124 -355q-154 -184 -410 -184t-409 184q-126 147 -126 360q0 16 1 33zM225 516q0 -156 90 -260q113 -135 293 -135q176 0 295 135q90 109 90 256 q0 143 -73.5 251.5t-200.5 141.5q-57 14 -112.5 14.5t-108.5 -14.5q-127 -33 -200 -140.5t-73 -248.5z" />
<glyph unicode="p" horiz-adv-x="1269" d="M137 -299v1272q0 72 76 71q70 0 70 -71v-96q49 90 142 135t193 45q104 0 197 -39l-2 2q164 -68 249 -209q81 -135 81 -307v-17q-6 -221 -151.5 -365.5t-373.5 -144.5q-106 0 -196 42t-135 122v-440q0 -33 -23.5 -52.5t-51.5 -19.5t-51.5 19.5t-23.5 52.5zM287 434 q0 -133 92 -221t233 -94q113 0 210.5 58.5t140.5 160.5q29 72 30 151v12q0 211 -151 337q-86 68 -211 77q-145 0 -244.5 -87t-99.5 -232v-162z" />
<glyph unicode="q" horiz-adv-x="1271" d="M82 487v17q0 172 81 307q85 141 249 209l-2 -2q92 39 196 39q100 0 193.5 -45t142.5 -135v96q0 72 70 71q76 0 75 -71v-1272q0 -33 -23.5 -52.5t-51 -19.5t-51 19.5t-23.5 52.5v440q-45 -80 -135 -122t-197 -42q-227 0 -372.5 144.5t-151.5 365.5zM231 489q2 -80 31 -151 q43 -102 140.5 -160.5t209.5 -58.5q141 6 233.5 94t92.5 221v162q0 145 -99.5 232t-244.5 87q-125 -10 -211 -77q-152 -126 -152 -337v-12z" />
<glyph unicode="r" horiz-adv-x="690" d="M131 68v907q0 33 22.5 51t50 19.5t50 -17t22.5 -53.5v-103q84 174 306 175q78 0 77 -72q0 -70 -77 -70q-150 0 -225.5 -104.5t-75.5 -270.5v-462q0 -31 -21.5 -51.5t-52.5 -20.5q-35 0 -55.5 19.5t-20.5 52.5z" />
<glyph unicode="s" horiz-adv-x="1095" d="M57 231q-12 41 21 68t74 16.5t49 -57.5q14 -66 111.5 -102.5t217.5 -36.5q59 0 127 15.5t128.5 60.5t60.5 110q0 45 -19.5 74t-78 44t-86 19t-119.5 11q-12 2 -19 2q-78 8 -112.5 12t-102 16.5t-100.5 30.5t-72 48t-55 76t-16 107q0 102 72.5 177t170 106t203.5 31 q367 0 449 -211q14 -43 -16 -71.5t-70.5 -23.5t-53.5 42q-49 127 -309 127q-106 0 -201.5 -46.5t-95.5 -132.5q0 -43 21.5 -70.5t60.5 -39.5t86 -18.5t106 -10.5q27 0 41 -2q76 -6 115 -11t104.5 -17.5t100.5 -32t74 -50t55 -77.5t16 -109q0 -92 -47 -158.5t-122.5 -99.5 t-149.5 -48t-145.5 -15t-141.5 10t-142.5 35.5t-124 77.5t-65.5 124z" />
<glyph unicode="t" horiz-adv-x="788" d="M19 946q-8 16 -8 32q0 17 9 33q18 32 62 31h135v238q0 47 37 66q18 9 36 9l38 -10q37 -19 37 -65v-238h223q43 0 61 -31q9 -16 9 -32t-9 -33q-18 -33 -61 -33h-223v-553q0 -109 31.5 -174t125.5 -65q59 0 96 22q22 9 42 10q18 0 33 -9q31 -17 31 -55q0 -43 -44 -69 q-61 -35 -158 -34q-305 0 -305 374v553h-135q-46 0 -63 33z" />
<glyph unicode="u" horiz-adv-x="1314" d="M133 438v543q0 72 74 72q35 0 55.5 -19.5t20.5 -52.5v-543q0 -137 94 -228t223 -91q154 0 269.5 111.5t115.5 275.5v475q0 72 74 72q35 0 56.5 -19.5t21.5 -52.5v-918q0 -45 -37 -63q-18 -9 -37 -9l-37 9q-37 18 -37 66v129q-53 -106 -158.5 -160.5t-232.5 -54.5 q-190 0 -327.5 123.5t-137.5 334.5z" />
<glyph unicode="v" horiz-adv-x="1136" d="M10 958q-6 16 -5 30q0 41 50 60q20 8 37 7q39 0 60 -41l401 -799l405 803q14 37 56 40h8q36 0 59 -25q16 -17 17 -38q0 -13 -6 -28l-474 -940q-20 -43 -62 -46q-3 0 -5 -1q-39 0 -68 45z" />
<glyph unicode="w" horiz-adv-x="1861" d="M45 975q-5 13 -5 25q0 24 20 42q27 24 63 24h8q41 -3 55 -34l351 -801l323 672q20 51 69.5 51t71.5 -51l328 -674l342 795q14 37 55 41q5 1 11 1q34 0 59 -24q18 -17 18 -39q0 -13 -6 -28l-407 -952q-16 -40 -65 -40h-3q-51 1 -69 40l-328 688l-338 -688q-20 -39 -70 -42 q-3 0 -6 -1q-44 0 -63 43z" />
<glyph unicode="x" horiz-adv-x="1064" d="M43 109l356 417l-350 418q-21 27 -21 50q0 29 33 50q26 17 49 17q30 0 54 -29l336 -414l362 414q20 29 53 29q7 0 14 -1q42 -7 58 -39q7 -14 7 -29q0 -19 -11 -40l-383 -426l387 -426q20 -23 20 -46q0 -13 -6 -25q-16 -37 -54 -43q-6 -1 -12 -1q-31 0 -61 25l-372 428 l-350 -426q-20 -23 -47 -27q-9 -2 -16 -2q-15 0 -28 7q-18 10 -31 27q-11 14 -11 34q0 31 24 58z" />
<glyph unicode="y" horiz-adv-x="1144" d="M18 954q-7 16 -7 31q0 22 17 41q27 32 67 32h2q42 -1 61 -44l395 -791l391 793q18 39 60 41h5q37 0 63 -27q17 -18 17 -41q0 -14 -6 -28l-657 -1307q-23 -45 -65 -51q-7 -1 -13 -1q-33 0 -54 26q-15 18 -15 42q0 17 8 35l180 367z" />
<glyph unicode="z" horiz-adv-x="1083" d="M43 46q-5 13 -5 25q0 31 30 56l692 774q-109 0 -307.5 -1t-307.5 -1q-45 0 -63 36q-9 17 -9 35t10 37q19 36 62 35h760q55 0 76 -46q7 -16 7 -32q0 -28 -23 -53v2l-703 -776l658 2q47 0 67 -35q11 -18 11 -36q0 -16 -9 -33q-18 -35 -67 -35h-801q-62 0 -78 46z" />
<glyph unicode="{" horiz-adv-x="534" d="M37 598q0 27 15.5 47.5t41.5 22.5q41 4 58 20q33 33 32 166v307q0 147 49.5 221t202.5 74q43 0 61.5 -33.5t1 -68.5t-62.5 -35q-63 0 -83.5 -34t-20.5 -126v-299v-31v-34q0 -6 -1 -33t-4 -35t-8.5 -29.5t-12.5 -31.5l-17 -25q-10 -14 -24.5 -24.5t-33.5 -18.5 q18 -8 33 -17.5t25 -24.5l17 -26q7 -10 12.5 -31.5t8.5 -30.5t4 -35.5t1 -33.5v-34v-31v-287q0 -92 20.5 -126t83.5 -34q45 0 62.5 -33.5t-1 -68.5t-61.5 -35q-154 0 -203 74t-49 221v295q0 133 -32 166q-16 16 -58 20q-27 2 -42 22.5t-15 49.5z" />
<glyph unicode="|" horiz-adv-x="315" d="M74 -125v1473q0 31 21.5 51t51.5 20q35 0 55.5 -19.5t20.5 -51.5v-1473q0 -70 -76 -70q-31 0 -52 18.5t-21 51.5z" />
<glyph unicode="}" horiz-adv-x="552" d="M28 -146q17 34 62 33q63 0 84 34t21 126v287v31v34q0 6 1 33t4 36t8 30.5t12 31.5l18 26q10 15 24 24.5t33 17.5q-18 8 -32.5 18.5t-24.5 24.5l-18 25q-7 10 -12 31.5t-8 29.5t-4 34.5t-1 33.5v34v31v299q0 92 -20.5 126t-84.5 34q-45 0 -62 35q-8 17 -9 33q0 18 10 35 q18 34 61 34q154 0 203 -73.5t49 -221.5v-307q0 -133 33 -166q16 -16 57 -20q27 -2 42 -22.5t15 -47.5q0 -29 -15 -49.5t-42 -22.5q-41 -4 -57 -20q-33 -33 -33 -166v-295q0 -147 -49 -221t-203 -74q-43 0 -61 35q-9 17 -10 35q1 18 9 34z" />
<glyph unicode="~" horiz-adv-x="1056" d="M27 502q37 217 231 217q94 0 251 -69.5t191 -80.5q123 -27 150 93q6 43 44 56t69.5 -10.5t25.5 -70.5q-14 -104 -75.5 -158.5t-155.5 -54.5q-88 0 -253 80t-245 80q-35 0 -64.5 -26t-35.5 -79q-8 -41 -44 -52t-65.5 11.5t-23.5 63.5z" />
<glyph unicode="&#xa1;" horiz-adv-x="307" d="M61 905v70q0 45 40 60q19 7 38 7l42 -9q40 -17 40 -58v-70q0 -43 -40 -61q-21 -9 -41 -10l-39 9q-40 17 -40 62zM68 -221v903q0 45 37 62q18 8 38 9q20 0 39 -10q39 -18 39 -61v-903q0 -47 -39 -66q-19 -9 -37 -9q-20 0 -40 10q-37 20 -37 65z" />
<glyph unicode="&#xa2;" horiz-adv-x="1044" d="M31 557q2 176 103.5 304t266.5 173q10 4 70 15v106q0 37 35 53q18 8 36 9q17 0 35 -8q36 -15 35 -54v-106q195 -29 314 -170q18 -22 18 -46q0 -14 -7 -29q-17 -40 -54 -46q-5 -1 -10 -1q-32 0 -62 34v-3q-78 90 -199 113v-770q147 20 232 137q19 28 50 28q8 0 17 -2 q43 -9 57 -46q4 -12 4 -24q0 -27 -20 -56l2 2q-123 -156 -342 -180v-115q0 -47 -35 -63q-16 -7 -33 -8q-19 0 -38 11q-35 19 -35 60v119q-213 39 -329 189q-112 145 -111 359v15zM180 510q0 -133 79 -237.5t212 -137.5v766l-29 -4h2q-264 -68 -264 -387z" />
<glyph unicode="&#xa5;" horiz-adv-x="1257" d="M5 1294q19 37 55 38h2q35 0 65 -36l479 -645l479 647q24 26 56 26h7q36 -3 58 -35q12 -17 12 -33q0 -15 -10 -31l-450 -604h168q47 0 64 -32q8 -15 9 -31q0 -16 -10 -33q-18 -32 -63 -31h-248v-107h248q41 0 59 -32q10 -17 10 -33q0 -15 -8 -29q-16 -31 -61 -31h-248 v-196q0 -47 -36 -66q-17 -9 -35 -9l-37 10q-36 19 -33 65v196h-254q-43 4 -61 36q-8 15 -8 29q0 16 10 31q19 29 63 29h250v107h-254q-43 4 -61 35q-8 15 -8 30q0 16 10 32q19 30 63 30h170l-447 598q-14 22 -13 42q-1 17 8 33z" />
<glyph unicode="&#xa8;" horiz-adv-x="774" d="M80 1364q0 37 27.5 61.5t64.5 24.5q33 0 61.5 -24.5t28.5 -61.5q0 -43 -27.5 -66.5t-62.5 -23.5q-37 0 -64.5 25.5t-27.5 64.5zM481 1364q0 37 28 61.5t64 24.5q35 0 64 -24.5t29 -61.5q0 -45 -28 -67.5t-64.5 -22.5t-64.5 25.5t-28 64.5z" />
<glyph unicode="&#xa9;" horiz-adv-x="1021" d="M20 643q0 199 140.5 338t339 139t339 -139t140.5 -338q0 -197 -140.5 -336t-339 -139t-339 139t-140.5 336zM166 643q0 -139 98 -238.5t235.5 -99.5t236 99.5t98.5 238.5q0 141 -97.5 239.5t-237 98.5t-236.5 -98.5t-97 -239.5zM244 643q0 51 10 84q27 76 86 127h-2 q25 20 72 43q49 14 96 14q117 0 190 -82l-2 2q23 -30 23 -49q0 -54 -72 -73q-5 -1 -9 -1q-24 0 -50 25v2q-33 33 -80 33q-37 0 -74 -25l2 2q-41 -35 -41 -104q0 -51 31 -84q31 -37 84 -37q63 0 92 43q14 16 57 29q29 4 52.5 -11.5t27.5 -48.5q1 -6 1 -12q0 -26 -15 -41 q-74 -102 -211 -102q-119 0 -201 86q-67 80 -67 180z" />
<glyph unicode="&#xaa;" d="M74 545q4 158 87 288t228 185l-2 -2q84 39 197 39h22q229 -4 324 -160v78q0 33 19.5 53.5t54.5 20.5q33 0 54 -20.5t21 -53.5v-910q0 -33 -20.5 -53t-54.5 -20q-74 0 -74 73v99q-43 -86 -139.5 -136.5t-192.5 -50.5q-172 0 -295 88q-117 80 -175 205q-55 117 -55 257 q1 10 1 20zM223 543v-17q0 -206 150 -331q88 -68 211 -78q145 0 241.5 85t104.5 234v162q0 145 -90 227t-236 88h-7q-108 0 -204 -56q-98 -58 -139 -163q-27 -63 -31 -151z" />
<glyph unicode="&#xab;" horiz-adv-x="866" d="M31 471q-33 30 -33 60q0 32 37 65v-2l340 330h-2q20 20 51 20q29 0 51.5 -21.5t22.5 -50.5q0 -25 -25 -51l-299 -289l299 -288q25 -27 25 -51q0 -31 -19.5 -51.5t-54.5 -20.5q-37 0 -57 26l6 -4l-342 330v-2zM367 471q-33 30 -33 60q0 32 37 65v-2l340 330h-2 q25 20 51 20q31 0 52.5 -21.5t21.5 -50.5q0 -27 -25 -51l-297 -289l297 -288q25 -25 25 -51q0 -29 -21.5 -50.5t-52.5 -21.5q-33 0 -58 26l7 -4l-342 330v-2z" />
<glyph unicode="&#xad;" horiz-adv-x="747" d="M75 572q-9 16 -10 34q0 18 11 35q20 35 67 35h414q49 0 70 -35q10 -17 10 -34.5t-10 -34.5q-20 -34 -70 -33h-414q-49 -1 -68 33z" />
<glyph unicode="&#xae;" horiz-adv-x="980" d="M8 633q0 190 137.5 326.5t329.5 136.5q197 0 333 -136.5t136 -326.5q0 -193 -136 -329t-333 -136q-193 0 -330 136t-137 329zM147 633q0 -137 96.5 -234.5t231.5 -97.5q137 0 232.5 96.5t95.5 235.5q0 137 -95.5 234.5t-232.5 97.5q-133 0 -230.5 -97.5t-97.5 -234.5z M317 446v365q-2 33 18.5 52.5t55.5 19.5q29 0 50.5 -19.5t19.5 -62.5q45 86 141 86q31 0 53.5 -19.5t22.5 -52.5q0 -29 -20.5 -49.5t-55.5 -20.5q-61 0 -97 -40.5t-36 -106.5v-152q0 -33 -21.5 -52t-56.5 -19q-74 -1 -74 71z" />
<glyph unicode="&#xb0;" horiz-adv-x="413" d="M12 1180q0 72 52.5 122t128.5 50q74 0 126 -50.5t52 -121.5q0 -74 -52.5 -125t-125.5 -51q-76 0 -128.5 50t-52.5 126zM125 1182q0 -29 21.5 -51.5t48 -22.5t47 19.5t20.5 52.5q0 29 -20.5 48t-46.5 19q-29 0 -49.5 -19t-20.5 -46z" />
<glyph unicode="&#xb1;" horiz-adv-x="970" d="M57 46q-2 10 -2 19.5t2 19.5q4 19 22.5 33.5t45.5 16.5h684q43 0 60 -33q9 -16 9 -32.5t-9 -33.5q-17 -34 -60 -36h-684q-27 0 -45.5 13.5t-22.5 32.5zM66 613q-8 16 -8 33t9 34q17 33 58 33h268v272q0 47 37 65q17 8 35 8l39 -10q37 -19 37 -63v-272h268q39 0 56 -33 q9 -17 9 -34q0 -16 -8 -33q-16 -34 -57 -33h-268v-281q0 -43 -36 -61q-18 -9 -36 -9.5t-37 9.5q-37 18 -39 61v281h-268q-43 -1 -59 33z" />
<glyph unicode="&#xb2;" horiz-adv-x="1163" d="M93 54q-5 14 -5 28q0 33 31 57l606 457q80 57 121 145q30 65 30 133q0 24 -4 48q-16 121 -102 185t-209 64q-283 0 -313 -237q-4 -45 -42 -58q-14 -5 -27 -5q-23 0 -45 15q-29 20 -28 55v13q23 176 147 265.5t308 89.5q170 0 296 -99.5t157 -267.5q6 -37 6 -73 q0 -90 -40 -175q-56 -119 -163 -198l-246 -193l-270 -178l301 12h367q49 0 69 -34q11 -17 11 -35q0 -17 -10 -33q-19 -35 -68 -35h-805q-56 4 -73 54z" />
<glyph unicode="&#xb3;" horiz-adv-x="1161" d="M74 367q-1 6 -1 11q0 51 52 64q14 4 26 4q33 0 52 -28q8 -12 8 -29q29 -262 344 -262q160 0 250 115q70 89 69 194q0 31 -6 64q-27 143 -166 219q-47 20 -98 20q-59 0 -106 -24l4 2q-19 -12 -40 -12q-18 0 -37 10q-40 20 -40 63q0 37 25 58l360 333h-588q-41 0 -58 34 q-9 17 -9 33.5t9 33.5q17 33 58 33h727q55 0 76 -46q6 -14 6 -28q0 -31 -30 -64l-269 -262l-112 -63q46 11 88 11q74 0 140 -34q103 -53 155.5 -152.5t52.5 -213.5q0 -188 -130 -323.5t-329 -135.5q-446 0 -483 375z" />
<glyph unicode="&#xb4;" horiz-adv-x="473" d="M106 1176l150 182q39 57 96 31q49 -25 41 -70q-4 -18 -18 -35l-166 -180q-49 -47 -91.5 -11t-11.5 83z" />
<glyph unicode="&#xb6;" horiz-adv-x="985" d="M23 993q0 127 93 219.5t220 92.5h520q35 0 55.5 -20.5t20.5 -53.5q0 -70 -76 -70h-55v-1300q0 -29 -19.5 -49.5t-54.5 -20.5t-56.5 20.5t-21.5 49.5v1300h-256v-1300q0 -29 -19.5 -49.5t-54.5 -20.5q-33 0 -54 20.5t-21 49.5v835q-98 29 -159.5 111t-61.5 186z" />
<glyph unicode="&#xb7;" horiz-adv-x="249" d="M16 612q0 41 29 69t72 28t69.5 -28t26.5 -69t-26.5 -66.5t-69.5 -25.5t-72 25.5t-29 66.5z" />
<glyph unicode="&#xb8;" horiz-adv-x="622" d="M119 -150q18 33 50 31t56 -35q20 -35 69 -49q23 -7 44 -7q23 0 44 8q40 15 40 57q0 45 -55 60q-25 7 -47 7q-26 0 -46 -10l-49 57l47 152l148 -2l-39 -107q10 1 19 1q72 0 113 -42q46 -47 46 -112q0 -102 -90 -153q-63 -35 -135 -35q-31 0 -63 6q-108 22 -152 102 q-9 19 -9 37t9 34z" />
<glyph unicode="&#xb9;" horiz-adv-x="661" d="M102 793q-7 15 -7 32q0 21 11 43l297 404q27 30 65 30q13 0 28 -4q55 -14 55 -69v-1190q0 -39 -35 -55q-17 -8 -34.5 -8.5t-35.5 8.5q-35 16 -34 55v1003l-174 -245q-29 -42 -70 -43q-3 0 -5 1q-45 3 -61 38z" />
<glyph unicode="&#xba;" horiz-adv-x="1247" d="M74 559q16 174 114.5 304t264.5 177q63 18 155 19q84 0 152 -19q166 -47 266 -177t115 -304q1 -19 1 -38q0 -207 -124 -355q-154 -184 -410 -184t-409 184q-126 147 -126 360q0 16 1 33zM225 516q0 -156 90 -260q113 -135 293 -135q176 0 295 135q90 109 90 256 q0 143 -73.5 251.5t-200.5 141.5q-57 14 -112.5 14.5t-108.5 -14.5q-127 -33 -200 -140.5t-73 -248.5z" />
<glyph unicode="&#xbb;" horiz-adv-x="862" d="M27 188q0 27 24 52l299 288l-307 297q-16 27 -16 45q0 29 21.5 49.5t51.5 20.5q29 0 54 -20h-2l340 -330v2q34 -31 34 -63q0 -30 -32 -60l-340 -328h2q-25 -25 -55.5 -24.5t-52 21.5t-21.5 50zM340 870q0 29 21.5 49.5t50.5 20.5q33 0 53 -20h-2l340 -330v2 q35 -31 35 -62q0 -30 -31 -61l-342 -328h2q-20 -25 -55 -24q-29 0 -50.5 21.5t-21.5 49.5q0 25 22 52l302 288l-310 297q-14 29 -14 45z" />
<glyph unicode="&#xbf;" horiz-adv-x="1234" d="M63 255q27 58 83.5 100t96.5 63.5t117 54.5q68 27 104 46.5t68.5 55t32.5 82.5v50q0 39 37 56q19 9 38 9l36 -8q37 -16 37 -57v-52q0 -63 -21.5 -110t-72 -83t-86 -54.5t-105.5 -49.5q-57 -25 -90 -41t-73 -44.5t-59.5 -67.5t-21.5 -90v-5q0 -138 132 -211 q134 -75 290 -75q137 0 250 45t148 154q10 35 49 38q5 1 10 1q32 0 57 -22q20 -18 20 -42q0 -10 -3 -23q-27 -82 -86.5 -141t-137 -89t-152.5 -42t-157 -12q-98 0 -196.5 25.5t-184.5 75.5t-138 135q-50 82 -50 184q-1 81 28 144zM553 909v54q0 45 43 60q20 7 40 7 q23 0 45 -9q42 -17 42 -58v-54q0 -43 -42 -61q-22 -9 -44 -10q-21 0 -41 9q-43 17 -43 62z" />
<glyph unicode="&#xc0;" horiz-adv-x="1427" d="M4 80l619 1218q18 39 67 39q45 0 66 -39l616 -1212q12 -21 13 -39q0 -28 -33 -47q-26 -15 -49.5 -15t-45.5 15q-14 10 -22 27l-160 317h-770l-166 -324q-18 -37 -58 -37h-3q-38 0 -64 28q-16 18 -16 41q0 13 6 28zM367 473h645l-322 645zM467 1575q-21 23 -21 44 q0 23 25 44q26 22 53 22q20 0 39 -12q14 -8 25 -22l153 -174q12 -16 12 -32q0 -11 -5 -24q-14 -29 -47 -33q-5 -1 -11 -1q-27 0 -57 20z" />
<glyph unicode="&#xc1;" horiz-adv-x="1427" d="M4 80q-6 -15 -6 -28q0 -22 16 -41q26 -29 64 -28h3q40 1 58 37l166 324h770l160 -317q19 -40 62 -40q12 0 26 3q60 12 60 62q0 16 -11 34l-616 1212q-20 39 -66 39q-49 0 -67 -39zM367 473l323 645l322 -645h-645zM640 1430q-4 10 -4 20q0 16 9 33l154 166q27 35 63 35 q18 0 37 -9q42 -18 42 -51q0 -6 -1 -12q-4 -16 -18 -31l-170 -162q-27 -24 -56 -23q-6 0 -12 1q-35 6 -44 33z" />
<glyph unicode="&#xc2;" horiz-adv-x="1427" d="M4 80q-6 -15 -6 -28q0 -22 16 -41q26 -29 64 -28h3q40 1 58 37l166 324h770l160 -317q19 -40 62 -40q12 0 26 3q60 12 60 62q0 16 -11 34l-616 1212q-20 39 -66 39q-49 0 -67 -39zM367 473l323 645l322 -645h-645zM442 1386q-1 5 -1 11q0 23 22 49l162 135q31 24 60 24 t56 -24l164 -135q25 -22 25 -43q0 -18 -19 -35q-21 -20 -45 -20q-19 0 -41 12q-4 2 -10 6l-131 104l-137 -106q-22 -16 -45 -16q-10 0 -20 3q-34 8 -40 35z" />
<glyph unicode="&#xc3;" horiz-adv-x="1427" d="M4 80q-6 -15 -6 -28q0 -22 16 -41q26 -29 64 -28h3q40 1 58 37l166 324h770l160 -317q19 -40 62 -40q12 0 26 3q60 12 60 62q0 16 -11 34l-616 1212q-20 39 -66 39q-49 0 -67 -39zM367 473l323 645l322 -645h-645zM412 1445q-6 11 -6 25q0 20 12 46q55 88 164 88 q41 0 89 -22.5t75.5 -41t62.5 -21.5q3 0 5 -1q31 0 46 34q20 41 56 42q12 0 26 -5q43 -16 43 -55q0 -18 -8 -33q-41 -84 -123 -99q-18 -3 -37 -4q-64 0 -129 42q-64 41 -107 41q-42 0 -63 -39q-19 -28 -50 -28h-6q-36 3 -50 31z" />
<glyph unicode="&#xc4;" horiz-adv-x="1427" d="M4 80q-6 -15 -6 -28q0 -22 16 -41q26 -29 64 -28h3q40 1 58 37l166 324h770l160 -317q19 -40 62 -40q12 0 26 3q60 12 60 62q0 16 -11 34l-616 1212q-20 39 -66 39q-49 0 -67 -39zM367 473l323 645l322 -645h-645zM397 1483q0 37 28 61.5t64 24.5q33 0 62 -24.5t29 -61.5 q0 -43 -28 -66.5t-63 -23.5q-37 0 -64.5 25.5t-27.5 64.5zM799 1483q0 37 27.5 61.5t64.5 24.5q35 0 63.5 -24.5t28.5 -61.5q0 -45 -27.5 -67.5t-64.5 -22.5t-64.5 25.5t-27.5 64.5z" />
<glyph unicode="&#xc5;" horiz-adv-x="1427" d="M4 80q-6 -15 -6 -28q0 -22 16 -41q26 -29 64 -28h3q40 1 58 37l166 324h770l160 -317q19 -40 62 -40q12 0 26 3q60 12 60 62q0 16 -11 34l-616 1212q-20 39 -66 39q-49 0 -67 -39zM367 473l323 645l322 -645h-645zM506 1526q0 66 53 111.5t131 45.5q76 0 129 -46t53 -111 q0 -68 -53 -114t-129 -46q-78 0 -131 46t-53 114zM625 1525.5q0 -24.5 20.5 -43t44.5 -18.5q23 0 42.5 18.5t19.5 43t-18.5 41t-43 16.5t-45 -16.5t-20.5 -41z" />
<glyph unicode="&#xc6;" horiz-adv-x="2043" d="M-14 8q-6 13 -6 27q0 22 14 47l948 1188q20 33 64 33h45h804q45 0 61 -34q7 -15 7 -30q0 -19 -11 -38q-19 -34 -59 -34h-749v-454h713q41 0 60 -34q11 -18 11 -37q0 -15 -8 -31q-16 -34 -63 -33h-713v-439h749q41 0 59 -35q9 -17 9 -34.5t-9 -34.5q-17 -35 -59 -35h-802 q-41 0 -68 26.5t-27 63.5v262h-565l-278 -350q-25 -32 -61 -32h-10q-42 5 -56 38zM492 479h464v598z" />
<glyph unicode="&#xc7;" horiz-adv-x="1366" d="M80 670q0 250 157.5 432t397.5 219q64 9 124 9q291 0 486 -206q18 -21 18 -43q0 -13 -6 -25q-16 -36 -52 -43q-8 -2 -15 -2q-27 0 -51 21q-146 155 -387 155q-45 0 -95 -5q-195 -31 -312.5 -164t-117.5 -350q0 -231 154 -390t369 -159q119 0 237 59q102 53 168 137 q19 28 51 28q6 0 13 -1q41 -6 58 -38q8 -15 8 -31q0 -19 -11 -40q-80 -115 -221 -182q-106 -51 -217 -65l-27 -74q10 1 20 1q68 0 107 -38q45 -43 45 -104q0 -100 -87 -150q-61 -35 -132 -35q-29 0 -60 6q-104 20 -149 97q-9 18 -9 35t9 33q18 32 49 32t55 -31 q30 -50 108 -50h3q80 1 80 59q0 43 -54 57q-24 6 -44 6q-26 0 -45 -10l-48 53l35 107q-254 20 -433 213.5t-179 476.5z" />
<glyph unicode="&#xc8;" horiz-adv-x="1308" d="M156 90v1124q0 37 26.5 63t67.5 26h864q41 0 57 -33q8 -16 8 -32q0 -17 -9 -34q-17 -33 -58 -33h-809v-460h770q39 0 55 -33q8 -17 9 -34q0 -16 -8 -32q-15 -33 -56 -32h-770v-445h809q41 0 60 -34q11 -18 11 -36q0 -15 -7 -31q-16 -34 -64 -34h-862q-41 0 -67.5 26.5 t-26.5 63.5zM516 1597q-21 22 -21 43q0 22 23 41q27 23 55 24q19 0 39 -11q16 -8 27 -23l156 -170q13 -16 12 -31q0 -20 -21 -38q-22 -18 -46 -18.5t-52 18.5l-4 4z" />
<glyph unicode="&#xc9;" horiz-adv-x="1308" d="M156 90q0 -37 26.5 -63.5t67.5 -26.5h862q47 0 64 34q7 15 7 31q0 18 -11 36q-19 34 -60 34h-809v445h770q41 0 56 32q7 16 8 32q0 17 -9 34q-16 33 -55 33h-770v460h809q41 0 58 33q9 17 9 34q0 16 -8 32q-16 33 -57 33h-864q-41 0 -67.5 -26t-26.5 -63v-1124zM610 1438 q-4 10 -4 20q0 16 10 33l158 166q28 36 65 36q19 0 40 -10q41 -18 41 -49q0 -8 -2 -16q-4 -14 -19 -29l-174 -162q-27 -24 -56 -23q-6 0 -13 1q-36 6 -46 33z" />
<glyph unicode="&#xca;" horiz-adv-x="1308" d="M156 90q0 -37 26.5 -63.5t67.5 -26.5h862q47 0 64 34q7 15 7 31q0 18 -11 36q-19 34 -60 34h-809v445h770q41 0 56 32q7 16 8 32q0 17 -9 34q-16 33 -55 33h-770v460h809q41 0 58 33q9 17 9 34q0 16 -8 32q-16 33 -57 33h-864q-41 0 -67.5 -26t-26.5 -63v-1124zM463 1439 q-1 5 -1 10q0 23 21 48l162 135q31 22 60 22t57 -22l164 -135q25 -21 25 -42q0 -16 -15 -32q-22 -23 -50 -23q-17 0 -36 9q-6 4 -14 10l-131 103l-138 -105q-23 -17 -46 -16q-9 0 -18 2q-34 8 -40 36z" />
<glyph unicode="&#xcb;" horiz-adv-x="1308" d="M156 90q0 -37 26.5 -63.5t67.5 -26.5h862q47 0 64 34q7 15 7 31q0 18 -11 36q-19 34 -60 34h-809v445h770q41 0 56 32q7 16 8 32q0 17 -9 34q-16 33 -55 33h-770v460h809q41 0 58 33q9 17 9 34q0 16 -8 32q-16 33 -57 33h-864q-41 0 -67.5 -26t-26.5 -63v-1124zM412 1493 q0 37 27.5 61.5t64.5 24.5q33 0 61.5 -24.5t28.5 -61.5q0 -43 -27.5 -66.5t-62.5 -23.5q-37 0 -64.5 25.5t-27.5 64.5zM813 1493q0 37 27.5 61.5t64.5 24.5q35 0 63.5 -24.5t28.5 -61.5q0 -45 -27.5 -67.5t-64.5 -22.5t-64.5 25.5t-27.5 64.5z" />
<glyph unicode="&#xcc;" horiz-adv-x="450" d="M-18 1595q-22 24 -22 46q0 24 26 45q27 23 55 23q19 0 39 -11q16 -10 26 -25l158 -178q20 -27 6 -56.5t-48 -34.5q-6 -1 -12 -1q-28 0 -58 20zM141 1276q0 37 24 57q22 20 50 20h3q30 -1 53.5 -21.5t23.5 -55.5v-1225q0 -45 -39 -63q-20 -9 -40 -10q-19 0 -37 9 q-38 17 -38 64v1225z" />
<glyph unicode="&#xcd;" horiz-adv-x="450" d="M141 1276q0 37 23.5 57.5t53.5 19.5t53.5 -21.5t23.5 -55.5v-1225q0 -45 -39 -63q-20 -9 -40 -10q-19 0 -37 9q-38 17 -38 64v1225zM151 1440q-4 10 -4 21q0 16 9 32l151 168q26 35 60 35q17 0 36 -8q42 -18 43 -52q0 -6 -2 -12q-4 -16 -18 -31l-166 -166 q-26 -23 -53 -22q-7 0 -13 1q-34 7 -43 34z" />
<glyph unicode="&#xce;" horiz-adv-x="450" d="M-3 1411q-19 17 -19 37q0 22 24 45l158 135q30 24 58.5 24t55.5 -24l160 -135q22 -21 23 -43q0 -8 -3 -15q-11 -30 -43 -36q-7 -1 -15 -2q-25 0 -50 16l-129 105l-133 -107q-24 -18 -45.5 -18t-41.5 18zM141 1276q0 37 24 57q22 20 50 20h3q30 -1 53.5 -21.5t23.5 -55.5 v-1225q0 -45 -39 -63q-20 -9 -40 -10q-19 0 -37 9q-38 17 -38 64v1225z" />
<glyph unicode="&#xcf;" horiz-adv-x="450" d="M-76 1485q0 37 28 61.5t64 24.5q33 0 61.5 -24.5t28.5 -61.5q0 -43 -27.5 -66.5t-62.5 -23.5q-37 0 -64.5 25.5t-27.5 64.5zM141 1276q0 37 23.5 57.5t53.5 19.5t53.5 -21.5t23.5 -55.5v-1225q0 -45 -39 -63q-20 -9 -40 -10q-19 0 -37 9q-38 17 -38 64v1225zM326 1485 q0 37 27.5 61.5t64.5 24.5q35 0 63.5 -24.5t28.5 -61.5q0 -45 -27.5 -67.5t-64.5 -22.5t-64.5 25.5t-27.5 64.5z" />
<glyph unicode="&#xd0;" horiz-adv-x="1325" d="M-57 678q18 31 65 31h70v508q0 35 27.5 60.5t66.5 25.5h446q195 0 337.5 -96.5t208 -242t65.5 -313.5t-65.5 -313t-208 -241.5t-337.5 -96.5h-446q-39 0 -66.5 26.5t-27.5 61.5v496h-70q-45 0 -64 31q-10 16 -10 33q0 15 9 30zM227 137h391q217 0 339 152.5t122 361.5 t-121.5 362.5t-339.5 153.5h-391v-458h160q41 0 59 -31q10 -16 10 -33q0 -15 -7 -30q-16 -32 -62 -31h-160v-447z" />
<glyph unicode="&#xd1;" horiz-adv-x="1415" d="M145 57q0 -49 39 -68q19 -9 38 -10l40 11q39 20 39 67v723l-16 283l766 -1026q20 -35 65 -44q13 -3 26 -3q30 0 56 16q37 23 37 72v1175q0 43 -39 60q-19 8 -38 8l-40 -9q-39 -17 -39 -59v-725l21 -309l-789 1055q-25 37 -64 46q-11 3 -21 2q-27 0 -50 -17 q-31 -25 -31 -74v-1174zM420 1455q-6 11 -6 25q0 20 12 46q55 88 164 88q41 0 89 -22.5t75.5 -41t62.5 -21.5h5q31 0 46 34q20 41 56 41q12 0 26 -5q43 -16 43 -55q0 -18 -8 -33q-41 -84 -123 -99q-18 -3 -37 -3q-64 0 -129 41q-64 41 -107 41q-42 0 -63 -39 q-19 -28 -50 -28h-6q-36 3 -50 31z" />
<glyph unicode="&#xd2;" horiz-adv-x="1525" d="M76 674q0 244 150.5 426t391.5 221q50 7 104.5 7t113.5 -7q240 -37 399.5 -218t159.5 -429q0 -309 -192.5 -503t-463.5 -194q-285 0 -474 190t-189 507zM229 668q0 -248 144.5 -398.5t365.5 -150.5q215 0 359.5 149.5t144.5 399.5q0 199 -118.5 342t-307.5 174 q-46 6 -90.5 6t-87.5 -6q-186 -29 -298 -168t-112 -348zM530 1589q-22 23 -21 43q0 23 26 43q28 22 58 22q20 0 40 -9q16 -10 29 -25l165 -172q14 -16 14 -31q0 -18 -20 -37q-24 -21 -51 -20q-25 0 -53 16q-2 2 -6 4z" />
<glyph unicode="&#xd3;" horiz-adv-x="1525" d="M76 674q0 -317 189.5 -507t473.5 -190q270 0 463 194t193 503q0 248 -160 429t-399 218q-58 7 -112.5 7t-105.5 -7q-242 -39 -392 -221t-150 -426zM229 668q0 209 112 348t298 168q43 6 87.5 6t90.5 -6q188 -31 307 -174.5t119 -341.5q0 -250 -144.5 -399.5 t-359.5 -149.5q-221 0 -365.5 150.5t-144.5 398.5zM698 1491l160 166q29 35 66 35q18 0 39 -9q42 -18 42 -51q0 -6 -1 -12q-2 -16 -19 -31l-176 -162q-29 -25 -57 -24q-22 0 -43 16q-21 19 -22 40q0 16 11 32z" />
<glyph unicode="&#xd4;" horiz-adv-x="1525" d="M76 674q0 -317 189.5 -507t473.5 -190q270 0 463 194t193 503q0 248 -160 429t-399 218q-58 7 -112.5 7t-105.5 -7q-242 -39 -392 -221t-150 -426zM229 668q0 209 112 348t298 168q43 6 87.5 6t90.5 -6q188 -31 307 -174.5t119 -341.5q0 -250 -144.5 -399.5 t-359.5 -149.5q-221 0 -365.5 150.5t-144.5 398.5zM508 1445q-1 5 -1 10q0 23 21 48l160 135q31 22 60 22t57 -22l164 -135q24 -21 24 -41q0 -18 -18 -35q-22 -20 -47 -19q-19 0 -39 11q-6 2 -10 6l-131 103l-136 -105q-23 -17 -46 -16q-9 0 -18 2q-34 8 -40 36z" />
<glyph unicode="&#xd5;" horiz-adv-x="1525" d="M76 674q0 -317 189.5 -507t473.5 -190q270 0 463 194t193 503q0 248 -160 429t-399 218q-58 7 -112.5 7t-105.5 -7q-242 -39 -392 -221t-150 -426zM229 668q0 209 112 348t298 168q43 6 87.5 6t90.5 -6q188 -31 307 -174.5t119 -341.5q0 -250 -144.5 -399.5 t-359.5 -149.5q-221 0 -365.5 150.5t-144.5 398.5zM467 1469q-6 11 -6 26q0 20 12 45q55 88 164 88q41 0 89 -22.5t75.5 -41t62.5 -21.5h6q31 0 45 34q20 41 57 41q12 0 25 -4q43 -16 43 -56q0 -18 -8 -32q-41 -84 -123 -100q-18 -3 -36 -3q-64 0 -130 41q-64 41 -107 42 q-42 0 -63 -40q-19 -28 -49 -28q-3 0 -7 1q-36 2 -50 30z" />
<glyph unicode="&#xd6;" horiz-adv-x="1525" d="M76 674q0 -317 189.5 -507t473.5 -190q270 0 463 194t193 503q0 248 -160 429t-399 218q-58 7 -112.5 7t-105.5 -7q-242 -39 -392 -221t-150 -426zM229 668q0 209 112 348t298 168q43 6 87.5 6t90.5 -6q188 -31 307 -174.5t119 -341.5q0 -250 -144.5 -399.5 t-359.5 -149.5q-221 0 -365.5 150.5t-144.5 398.5zM449 1511q0 37 27.5 61.5t64.5 24.5q33 0 61.5 -24.5t28.5 -61.5q0 -43 -28 -66.5t-62 -23.5q-37 0 -64.5 25.5t-27.5 64.5zM850 1511q0 37 27.5 61.5t64.5 24.5q35 0 63.5 -24.5t28.5 -61.5q0 -45 -27.5 -67.5 t-64.5 -22.5t-64.5 25.5t-27.5 64.5z" />
<glyph unicode="&#xd8;" horiz-adv-x="1525" d="M76 674q0 244 150.5 426t391.5 221q50 7 104.5 7t113.5 -7q106 -18 194 -61l84 139q25 33 60 34h2q33 0 55 -31q12 -17 12 -35q0 -17 -10 -36l-86 -145q115 -92 181.5 -225.5t66.5 -286.5q0 -309 -192.5 -503t-463.5 -194q-145 0 -274 54l-88 -148q-25 -40 -61 -40h-5 q-39 3 -53 37q-7 16 -7 33q0 19 9 40l86 143q-127 90 -198.5 239t-71.5 339zM229 668q0 -289 193 -443l539 914q-76 35 -144 45q-46 6 -90.5 6t-87.5 -6q-186 -29 -298 -168t-112 -348zM539 156q92 -37 200 -37q215 0 359.5 149.5t144.5 399.5q0 242 -170 395z" />
<glyph unicode="&#xd9;" horiz-adv-x="1554" d="M152 578v673q0 43 37 61q18 8 37 8q20 0 40 -9q39 -18 39 -62v-671q0 -106 39 -193.5t102.5 -141t144.5 -82t165 -28.5t164.5 28.5t144 82t102.5 140.5t39 194v671q0 47 38 67q19 10 39 10q19 0 38 -9q39 -18 39 -66v-673q0 -141 -52.5 -257t-138.5 -188t-192.5 -109.5 t-221 -37.5t-221 37.5t-192.5 109.5t-138 188t-52 257zM561 1587q-21 24 -21 46q0 23 23 44q26 22 54 22q19 0 38 -9q16 -8 29 -25l158 -176q12 -16 12 -32q0 -11 -6 -23q-14 -29 -47 -34q-6 -1 -12 -1q-28 0 -58 20z" />
<glyph unicode="&#xda;" horiz-adv-x="1554" d="M152 578q0 -141 52 -257t138 -188t192.5 -109.5t221 -37.5t221 37.5t192.5 109.5t138.5 187.5t52.5 257.5v673q0 47 -39 66q-19 9 -38 9q-20 0 -39 -10q-38 -19 -38 -67v-671q0 -106 -39 -193.5t-102.5 -141t-144 -82t-164.5 -28.5t-165 28.5t-144.5 82t-102.5 140.5 t-39 194v671q0 43 -39 62q-20 9 -40 9q-19 0 -37 -8q-38 -17 -37 -61v-673zM673 1434q-3 10 -4 19q0 17 11 34l156 162q29 35 65 35q18 0 39 -9q41 -19 41 -50q0 -7 -2 -13q-4 -14 -18 -29l-175 -162q-27 -22 -55 -21q-7 0 -13 1q-36 6 -45 33z" />
<glyph unicode="&#xdb;" horiz-adv-x="1554" d="M152 578q0 -141 52 -257t138 -188t192.5 -109.5t221 -37.5t221 37.5t192.5 109.5t138.5 187.5t52.5 257.5v673q0 47 -39 66q-19 9 -38 9q-20 0 -39 -10q-38 -19 -38 -67v-671q0 -106 -39 -193.5t-102.5 -141t-144 -82t-164.5 -28.5t-165 28.5t-144.5 82t-102.5 140.5 t-39 194v671q0 43 -39 62q-20 9 -40 9q-19 0 -37 -8q-38 -17 -37 -61v-673zM517 1450q-2 6 -1 12q0 22 21 47l161 131q31 24 60.5 24t58.5 -24l164 -131q25 -22 25 -42q0 -18 -19 -35q-21 -20 -46 -20q-19 0 -40 11q-4 2 -10 7l-133 102l-137 -105q-20 -16 -44 -16 q-9 0 -19 3q-34 9 -41 36z" />
<glyph unicode="&#xdc;" horiz-adv-x="1554" d="M152 578q0 -141 52 -257t138 -188t192.5 -109.5t221 -37.5t221 37.5t192.5 109.5t138.5 187.5t52.5 257.5v673q0 47 -39 66q-19 9 -38 9q-20 0 -39 -10q-38 -19 -38 -67v-671q0 -106 -39 -193.5t-102.5 -141t-144 -82t-164.5 -28.5t-165 28.5t-144.5 82t-102.5 140.5 t-39 194v671q0 43 -39 62q-20 9 -40 9q-19 0 -37 -8q-38 -17 -37 -61v-673zM477 1509q0 37 27.5 61.5t64.5 24.5q33 0 61.5 -24.5t28.5 -61.5q0 -43 -27.5 -66.5t-62.5 -23.5q-37 0 -64.5 25.5t-27.5 64.5zM879 1509q0 37 27.5 61.5t64.5 24.5q35 0 63.5 -24.5t28.5 -61.5 q0 -45 -27.5 -67.5t-64.5 -22.5t-64.5 25.5t-27.5 64.5z" />
<glyph unicode="&#xdd;" horiz-adv-x="1263" d="M12 1286q-8 -14 -8 -29q0 -21 14 -45l519 -686v-458q0 -37 21.5 -56.5t53.5 -19.5q29 0 52.5 20.5t23.5 55.5v458l514 691q14 22 15 42q0 17 -11 32q-23 34 -60.5 34t-66.5 -35l-469 -635l-463 633q-24 35 -63 35h-8q-46 -4 -64 -37zM516 1418q-4 11 -4 22q0 17 10 35 l156 170q28 37 64 37q17 0 36 -9q42 -19 42 -55q0 -6 -1 -12q-4 -16 -18 -31l-172 -168q-27 -24 -56 -24q-6 0 -12 1q-35 6 -45 34z" />
<glyph unicode="&#xde;" horiz-adv-x="1298" d="M156 63v1178q0 41 37 59q19 9 37 10l36 -8q37 -17 37 -63v-125h365q252 0 393 -142.5t141 -335t-137 -319.5t-395 -127h-367v-124q0 -49 -37 -68q-18 -9 -36 -9l-37 10q-37 19 -37 64zM303 328h367q190 0 287 91q93 87 94 208q0 143 -107 247q-104 102 -274 103h-367 v-649z" />
<glyph unicode="&#xdf;" horiz-adv-x="1103" d="M109 -317v1286q0 100 35.5 171.5t97 108.5t127 53.5t139.5 16.5q76 0 143.5 -17.5t130 -54.5t100.5 -108.5t38 -169.5q0 -80 -52.5 -160t-128.5 -111q131 -33 202 -114.5t71 -202.5q0 -109 -41 -185.5t-115 -117.5t-158 -59.5t-186 -18.5h-117q-45 0 -61 33q-8 15 -8 31 q0 18 10 35q18 34 59 34h117q350 0 350 248q0 115 -87 173t-226 58h-158q-37 0 -53 34q-8 17 -8 34t8 35q16 35 53 35h58q137 0 229 57t92 162q0 115 -80 166t-184 51q-102 0 -175 -50.5t-73 -166.5v-1286q0 -41 -37 -59q-19 -9 -38 -9q-18 0 -37 8q-37 17 -37 60z" />
<glyph unicode="&#xe0;" d="M74 545q4 158 87 288t228 185l-2 -2q84 39 197 39h22q229 -4 324 -160v78q0 33 19.5 53.5t54.5 20.5q33 0 54 -20.5t21 -53.5v-910q0 -33 -20.5 -53t-54.5 -20q-74 0 -74 73v99q-43 -86 -139.5 -136.5t-192.5 -50.5q-172 0 -295 88q-117 80 -175 205q-55 117 -55 257 q1 10 1 20zM223 543v-17q0 -206 150 -331q88 -68 211 -78q145 0 241.5 85t104.5 234v162q0 145 -90 227t-236 88h-7q-108 0 -204 -56q-98 -58 -139 -163q-27 -63 -31 -151zM416 1339q-22 23 -22 45t24 41q26 21 53 22q19 0 39 -11q16 -8 27 -23l155 -172q12 -14 12 -30 q0 -11 -6 -22q-14 -28 -47 -33q-6 -1 -12 -1q-27 0 -57 19z" />
<glyph unicode="&#xe1;" d="M74 545q4 158 87 288t228 185l-2 -2q84 39 197 39h22q229 -4 324 -160v78q0 33 19.5 53.5t54.5 20.5q33 0 54 -20.5t21 -53.5v-910q0 -33 -20.5 -53t-54.5 -20q-74 0 -74 73v99q-43 -86 -139.5 -136.5t-192.5 -50.5q-172 0 -295 88q-117 80 -175 205q-55 117 -55 257 q1 10 1 20zM223 543v-17q0 -206 150 -331q88 -68 211 -78q145 0 241.5 85t104.5 234v162q0 145 -90 227t-236 88h-7q-108 0 -204 -56q-98 -58 -139 -163q-27 -63 -31 -151zM540 1194q-4 10 -4 20q0 15 9 31l153 160q27 35 63 35q18 0 38 -8q41 -19 40 -49q0 -6 -1 -13 q-4 -14 -19 -29l-170 -157q-25 -22 -52 -22q-6 0 -13 1q-35 6 -44 31z" />
<glyph unicode="&#xe2;" d="M74 545q4 158 87 288t228 185l-2 -2q84 39 197 39h22q229 -4 324 -160v78q0 33 19.5 53.5t54.5 20.5q33 0 54 -20.5t21 -53.5v-910q0 -33 -20.5 -53t-54.5 -20q-74 0 -74 73v99q-43 -86 -139.5 -136.5t-192.5 -50.5q-172 0 -295 88q-117 80 -175 205q-55 117 -55 257 q1 10 1 20zM223 543v-17q0 -206 150 -331q88 -68 211 -78q145 0 241.5 85t104.5 234v162q0 145 -90 227t-236 88h-7q-108 0 -204 -56q-98 -58 -139 -163q-27 -63 -31 -151zM364 1219q-2 6 -2 11q0 22 21 48l160 135q30 24 58.5 24t55.5 -24l162 -135q22 -21 23 -43 q0 -8 -3 -15q-11 -30 -43 -36q-7 -1 -15 -2q-25 0 -50 16l-131 105l-133 -107q-22 -16 -45 -16q-9 0 -19 3q-32 9 -39 36z" />
<glyph unicode="&#xe3;" d="M74 545q4 158 87 288t228 185l-2 -2q84 39 197 39h22q229 -4 324 -160v78q0 33 19.5 53.5t54.5 20.5q33 0 54 -20.5t21 -53.5v-910q0 -33 -20.5 -53t-54.5 -20q-74 0 -74 73v99q-43 -86 -139.5 -136.5t-192.5 -50.5q-172 0 -295 88q-117 80 -175 205q-55 117 -55 257 q1 10 1 20zM223 543v-17q0 -206 150 -331q88 -68 211 -78q145 0 241.5 85t104.5 234v162q0 145 -90 227t-236 88h-7q-108 0 -204 -56q-98 -58 -139 -163q-27 -63 -31 -151zM342 1236q-6 11 -6 25q0 20 12 46q55 88 164 88q41 0 89 -22.5t76 -41t62 -21.5q3 0 6 -1 q31 0 46 34q20 41 56 42q12 0 25 -5q43 -16 44 -55q0 -18 -9 -33q-41 -84 -123 -99q-18 -3 -36 -3q-64 0 -130 41q-64 41 -107 41q-42 0 -62 -39q-19 -28 -50 -28h-7q-36 3 -50 31z" />
<glyph unicode="&#xe4;" d="M74 545q4 158 87 288t228 185l-2 -2q84 39 197 39h22q229 -4 324 -160v78q0 33 19.5 53.5t54.5 20.5q33 0 54 -20.5t21 -53.5v-910q0 -33 -20.5 -53t-54.5 -20q-74 0 -74 73v99q-43 -86 -139.5 -136.5t-192.5 -50.5q-172 0 -295 88q-117 80 -175 205q-55 117 -55 257 q1 10 1 20zM223 543v-17q0 -206 150 -331q88 -68 211 -78q145 0 241.5 85t104.5 234v162q0 145 -90 227t-236 88h-7q-108 0 -204 -56q-98 -58 -139 -163q-27 -63 -31 -151zM326 1276q0 37 27.5 61.5t64.5 24.5q33 0 61.5 -24.5t28.5 -61.5q0 -43 -27.5 -66.5t-62.5 -23.5 q-37 0 -64.5 25.5t-27.5 64.5zM727 1276q0 37 27.5 61.5t64.5 24.5q35 0 63.5 -24.5t28.5 -61.5q0 -45 -27.5 -67.5t-64.5 -22.5t-64.5 25.5t-27.5 64.5z" />
<glyph unicode="&#xe5;" d="M74 545q4 158 87 288t228 185l-2 -2q84 39 197 39h22q229 -4 324 -160v78q0 33 19.5 53.5t54.5 20.5q33 0 54 -20.5t21 -53.5v-910q0 -33 -20.5 -53t-54.5 -20q-74 0 -74 73v99q-43 -86 -139.5 -136.5t-192.5 -50.5q-172 0 -295 88q-117 80 -175 205q-55 117 -55 257 q1 10 1 20zM223 543v-17q0 -206 150 -331q88 -68 211 -78q145 0 241.5 85t104.5 234v162q0 145 -90 227t-236 88h-7q-108 0 -204 -56q-98 -58 -139 -163q-27 -63 -31 -151zM430 1276q0 72 52.5 122t127.5 50q74 0 126 -50t52 -122q0 -74 -52 -125t-126 -51q-76 0 -128 50 t-52 126zM547 1276q0 -27 19.5 -47.5t43.5 -20.5q23 0 41.5 20.5t18.5 47.5t-17.5 44t-42 17t-44 -18t-19.5 -43z" />
<glyph unicode="&#xe6;" horiz-adv-x="2136" d="M92 545q4 158 87 288t227 185l-3 -2q88 39 200 39h22q94 -2 186 -41t139 -125v98q0 45 37 61q17 7 33 7q20 0 40 -11q36 -18 36 -57v-106q121 176 387 176q84 0 151 -19q176 -47 278.5 -183t104.5 -331v2q4 -102 -102 -102h-815q27 -135 132 -214t249 -83h12 q142 0 262 90h-2q26 19 54 19q12 0 24 -4q41 -11 48 -45q1 -6 1 -11q0 -29 -29 -65q-131 -123 -350 -123h-14q-264 0 -391 176v-115q0 -45 -36 -63q-18 -9 -36 -9.5t-37 9.5q-37 18 -37 63v107q-109 -180 -336 -181q-104 0 -196 39l2 -2q-164 68 -248 209q-80 135 -80 307 v17zM242 543q0 -8 -1 -17q0 -208 152 -331h-2q88 -68 211 -78q82 0 172 39h-2q172 84 182 280v162q0 137 -92 221t-241 94q-113 0 -210.5 -58t-138.5 -161q-26 -63 -30 -151zM1094 561h772q-10 131 -82 222t-191 122h2q-49 12 -108 13q-166 0 -268 -96.5t-125 -260.5z" />
<glyph unicode="&#xe7;" horiz-adv-x="1087" d="M72 557q12 225 157.5 360.5t376.5 135.5q219 0 371 -174q16 -20 16 -41q0 -13 -7 -27q-17 -35 -53 -41q-6 -1 -13 -1q-29 0 -54 24q-109 125 -276 124q-164 0 -266.5 -112.5t-102.5 -288.5q0 -152 86 -256q104 -133 290.5 -133t285.5 135q20 26 50 26q8 0 16 -1 q42 -8 58 -42q6 -12 5 -26q0 -23 -17 -49q-125 -154 -336 -178l-30 -76q11 1 21 1q69 0 108 -37q45 -42 45 -101q0 -102 -88 -150q-60 -32 -126 -32q-32 0 -66 8q-103 23 -148 96q-9 17 -9 34t9 34q18 33 50 34q2 0 4 1q29 0 52 -27q33 -51 110 -56h10q67 0 69 54 q0 41 -55 55q-24 6 -43 6q-26 0 -46 -10l-49 53l39 115q-201 27 -326 176q-120 150 -119 349q0 19 1 38z" />
<glyph unicode="&#xe8;" horiz-adv-x="1267" d="M81 497q-1 15 -1 30q0 166 92 307q100 154 283 204q73 22 149.5 22t157.5 -22h2q174 -47 275.5 -183t103.5 -331v2q1 -6 0 -11q0 -32 -20 -55q-24 -28 -81 -28h-809q20 -131 123 -219t252 -88q160 0 273 86q25 23 56.5 22.5t49.5 -17.5q19 -18 20 -49q0 -29 -28 -56 q-131 -123 -350 -123h-15q-123 0 -234.5 47t-180.5 135q-109 144 -118 327zM227 557h772q-10 131 -85.5 224t-194.5 124h2q-54 15 -107 15l-114 -17q-121 -31 -192 -125t-81 -221zM428 1337q-21 24 -21 46q0 23 23 44q26 24 55 24q18 0 37 -9q16 -8 29 -25l156 -180 q12 -16 12 -32q0 -11 -6 -23q-14 -29 -47 -35q-7 -1 -14 -1q-27 0 -56 19z" />
<glyph unicode="&#xe9;" horiz-adv-x="1267" d="M81 497q-1 15 -1 30q0 166 92 307q100 154 283 204q73 22 149.5 22t157.5 -22h2q174 -47 275.5 -183t103.5 -331v2q1 -6 0 -11q0 -32 -20 -55q-24 -28 -81 -28h-809q20 -131 123 -219t252 -88q160 0 273 86q25 23 56.5 22.5t49.5 -17.5q19 -18 20 -49q0 -29 -28 -56 q-131 -123 -350 -123h-15q-123 0 -234.5 47t-180.5 135q-109 144 -118 327zM227 557h772q-10 131 -85.5 224t-194.5 124h2q-54 15 -107 15l-114 -17q-121 -31 -192 -125t-81 -221zM560 1181q-4 11 -3 21q0 17 8 35l152 170q27 36 63 36q19 0 39 -9q39 -18 40 -51 q0 -8 -3 -17q-4 -14 -18 -29l-168 -168q-27 -24 -55 -23q-6 0 -12 1q-34 6 -43 34z" />
<glyph unicode="&#xea;" horiz-adv-x="1267" d="M81 497q-1 15 -1 30q0 166 92 307q100 154 283 204q73 22 149.5 22t157.5 -22h2q174 -47 275.5 -183t103.5 -331v2q1 -6 0 -11q0 -32 -20 -55q-24 -28 -81 -28h-809q20 -131 123 -219t252 -88q160 0 273 86q25 23 56.5 22.5t49.5 -17.5q19 -18 20 -49q0 -29 -28 -56 q-131 -123 -350 -123h-15q-123 0 -234.5 47t-180.5 135q-109 144 -118 327zM227 557h772q-10 131 -85.5 224t-194.5 124h2q-54 15 -107 15l-114 -17q-121 -31 -192 -125t-81 -221zM396 1146q-19 18 -18 38q0 23 23 49l158 139q30 25 58.5 25t56.5 -25l160 -139 q22 -22 22 -45q0 -8 -3 -17q-11 -31 -43 -36q-7 -1 -15 -2q-25 0 -50 16l-129 108l-133 -110q-24 -20 -46 -20q-21 0 -41 19z" />
<glyph unicode="&#xeb;" horiz-adv-x="1267" d="M81 497q-1 15 -1 30q0 166 92 307q100 154 283 204q73 22 149.5 22t157.5 -22h2q174 -47 275.5 -183t103.5 -331v2q1 -6 0 -11q0 -32 -20 -55q-24 -28 -81 -28h-809q20 -131 123 -219t252 -88q160 0 273 86q25 23 56.5 22.5t49.5 -17.5q19 -18 20 -49q0 -29 -28 -56 q-131 -123 -350 -123h-15q-123 0 -234.5 47t-180.5 135q-109 144 -118 327zM227 557h772q-10 131 -85.5 224t-194.5 124h2q-54 15 -107 15l-114 -17q-121 -31 -192 -125t-81 -221zM338 1245q0 37 27.5 61.5t64.5 24.5q33 0 61.5 -24.5t28.5 -61.5q0 -43 -27.5 -66.5 t-62.5 -23.5q-37 0 -64.5 25.5t-27.5 64.5zM739 1245q0 37 28 61.5t64 24.5q35 0 64 -24.5t29 -61.5q0 -45 -28 -67.5t-64.5 -22.5t-64.5 25.5t-28 64.5z" />
<glyph unicode="&#xec;" horiz-adv-x="413" d="M-10 1335q-21 24 -21 46q0 23 23 44q26 24 55 24q18 0 37 -9q16 -8 29 -25l153 -182q12 -17 12 -34q0 -12 -6 -23q-14 -29 -46 -35q-6 -1 -12 -1q-27 0 -56 21zM121 53v922q0 41 38 59q19 9 38 10q18 0 36 -9q37 -17 37 -58v-924q0 -43 -37 -59q-18 -8 -36 -8 q-19 0 -38 9q-38 17 -38 58z" />
<glyph unicode="&#xed;" horiz-adv-x="413" d="M121 53q0 -41 38 -58q20 -9 38 -9t36 8q37 16 37 59v924q0 41 -37 58q-18 8 -36 9q-19 0 -38 -10q-38 -18 -38 -59v-922zM129 1188q-4 10 -4 20q0 16 10 33l156 166q29 35 65 35q18 0 39 -8q41 -19 41 -52q0 -7 -2 -14q-4 -14 -18 -29l-174 -161q-27 -24 -56 -24 q-6 0 -12 1q-35 6 -45 33z" />
<glyph unicode="&#xee;" horiz-adv-x="413" d="M-32 1136q-19 18 -19 37q0 22 24 48l160 139q30 24 58.5 23.5t56.5 -23.5l162 -139q22 -21 22 -43q0 -8 -3 -17q-11 -31 -43 -37q-7 -1 -15 -1q-25 0 -49 16l-132 106l-133 -108q-25 -20 -47 -20t-42 19zM121 53q0 -41 38 -58q20 -9 38 -9t36 8q37 16 37 59v924 q0 41 -37 58q-18 8 -36 9q-19 0 -38 -10q-38 -18 -38 -59v-922z" />
<glyph unicode="&#xef;" horiz-adv-x="413" d="M-78 1251q0 37 27.5 61.5t64.5 24.5q33 0 61.5 -24.5t28.5 -61.5q0 -43 -27.5 -66.5t-62.5 -23.5q-37 0 -64.5 25.5t-27.5 64.5zM121 53q0 -41 38 -58q20 -9 38 -9t36 8q37 16 37 59v924q0 41 -37 58q-18 8 -36 9q-19 0 -38 -10q-38 -18 -38 -59v-922zM287 1251 q0 37 27.5 61.5t64.5 24.5q35 0 63.5 -24.5t28.5 -61.5q0 -45 -27.5 -67.5t-64.5 -22.5t-64.5 25.5t-27.5 64.5z" />
<glyph unicode="&#xf0;" horiz-adv-x="1187" d="M51 539q0 109 43 211q59 139 186.5 214.5t274.5 75.5q104 0 201.5 -44t146.5 -136v98q0 119 -102 191l-43 -47q-22 -28 -51 -28q-5 0 -11 1q-35 6 -45 38q-3 9 -3 19q0 23 18 48l36 39q-78 39 -159 38q-176 0 -291 -114q-27 -26 -52 -26q-22 0 -43 21q-22 22 -22 45 q0 25 23 52q127 129 325 154q29 2 56 2q149 0 262 -66l53 59q21 23 49 23q7 0 14 -1q37 -7 49 -37q4 -9 3 -19q0 -21 -17 -43l-53 -56q152 -117 152 -288v-537q-2 -111 -55.5 -207t-153.5 -156h2q-106 -70 -258 -69q-170 0 -291 84l2 -2q-115 74 -180.5 199t-65.5 264z M205 539q0 -63 12 -109q41 -156 160 -233q96 -66 209 -66q98 0 182 51q63 35 98 102.5t39 143.5v150q0 129 -116.5 225t-241.5 96q-104 0 -189.5 -51t-126.5 -154q-26 -67 -26 -155z" />
<glyph unicode="&#xf1;" horiz-adv-x="1320" d="M137 59v918q0 45 37 63q18 9 37 10l37 -10q37 -18 37 -65v-127q53 106 158.5 159.5t232.5 53.5q190 0 327.5 -124t137.5 -335v-543q0 -72 -74 -71q-35 0 -55.5 19.5t-20.5 51.5v543q0 137 -94 228.5t-223 91.5q-154 0 -269.5 -112t-115.5 -275v-476q0 -72 -74 -71 q-35 0 -56.5 19t-21.5 52zM381 1226q-6 11 -6 25q0 20 12 45q55 88 164 88q41 0 89 -22.5t75.5 -40.5t62.5 -22h5q31 0 46 34q20 41 57 42q12 0 25 -5q43 -16 43 -56q0 -18 -8 -32q-41 -84 -123 -99q-18 -3 -36 -4q-64 0 -130 42q-64 41 -107 41q-42 0 -63 -39 q-19 -28 -49 -28h-7q-36 3 -50 31z" />
<glyph unicode="&#xf2;" d="M74 559q16 174 114.5 304t264.5 177q63 18 155 19q84 0 152 -19q166 -47 266 -177t115 -304q1 -19 1 -38q0 -207 -124 -355q-154 -184 -410 -184t-409 184q-126 147 -126 360q0 16 1 33zM225 516q0 -156 90 -260q113 -135 293 -135q176 0 295 135q90 109 90 256 q0 143 -73.5 251.5t-200.5 141.5q-57 14 -112.5 14.5t-108.5 -14.5q-127 -33 -200 -140.5t-73 -248.5zM406 1352q-21 23 -22 44q0 22 24 42q26 24 55 24q18 0 37 -10q16 -8 28 -25l158 -172q12 -16 12 -32q0 -11 -6 -23q-14 -29 -47 -34q-6 -1 -11 -1q-28 0 -59 21z" />
<glyph unicode="&#xf3;" d="M74 559q16 174 114.5 304t264.5 177q63 18 155 19q84 0 152 -19q166 -47 266 -177t115 -304q1 -19 1 -38q0 -207 -124 -355q-154 -184 -410 -184t-409 184q-126 147 -126 360q0 16 1 33zM225 516q0 -156 90 -260q113 -135 293 -135q176 0 295 135q90 109 90 256 q0 143 -73.5 251.5t-200.5 141.5q-57 14 -112.5 14.5t-108.5 -14.5q-127 -33 -200 -140.5t-73 -248.5zM546 1190q-4 10 -4 21q0 16 9 32l154 166q27 35 62 36q18 0 38 -9q42 -18 42 -52q0 -6 -1 -12q-4 -16 -19 -31l-170 -161q-27 -24 -55 -24q-6 0 -12 1q-35 6 -44 33z" />
<glyph unicode="&#xf4;" d="M74 559q16 174 114.5 304t264.5 177q63 18 155 19q84 0 152 -19q166 -47 266 -177t115 -304q1 -19 1 -38q0 -207 -124 -355q-154 -184 -410 -184t-409 184q-126 147 -126 360q0 16 1 33zM225 516q0 -156 90 -260q113 -135 293 -135q176 0 295 135q90 109 90 256 q0 143 -73.5 251.5t-200.5 141.5q-57 14 -112.5 14.5t-108.5 -14.5q-127 -33 -200 -140.5t-73 -248.5zM395 1186q-19 17 -19 36q0 22 25 48l160 139q29 24 58 24t59 -24l162 -139q22 -21 22 -43q0 -8 -3 -17q-11 -31 -44 -36q-8 -1 -15 -2l-50 16l-132 108l-135 -110 q-24 -18 -46 -18t-42 18z" />
<glyph unicode="&#xf5;" d="M74 559q16 174 114.5 304t264.5 177q63 18 155 19q84 0 152 -19q166 -47 266 -177t115 -304q1 -19 1 -38q0 -207 -124 -355q-154 -184 -410 -184t-409 184q-126 147 -126 360q0 16 1 33zM225 516q0 -156 90 -260q113 -135 293 -135q176 0 295 135q90 109 90 256 q0 143 -73.5 251.5t-200.5 141.5q-57 14 -112.5 14.5t-108.5 -14.5q-127 -33 -200 -140.5t-73 -248.5zM332 1240q-6 11 -6 25q0 20 12 46q55 88 164 88q41 0 89 -22.5t75.5 -41t62.5 -21.5h5q31 0 46 34q20 41 56 41q12 0 26 -5q43 -16 43 -55q0 -18 -8 -33 q-41 -84 -123 -99q-18 -3 -37 -3q-64 0 -129 41q-64 41 -107 41q-42 0 -63 -39q-19 -28 -50 -28h-6q-36 3 -50 31z" />
<glyph unicode="&#xf6;" d="M74 559q16 174 114.5 304t264.5 177q63 18 155 19q84 0 152 -19q166 -47 266 -177t115 -304q1 -19 1 -38q0 -207 -124 -355q-154 -184 -410 -184t-409 184q-126 147 -126 360q0 16 1 33zM225 516q0 -156 90 -260q113 -135 293 -135q176 0 295 135q90 109 90 256 q0 143 -73.5 251.5t-200.5 141.5q-57 14 -112.5 14.5t-108.5 -14.5q-127 -33 -200 -140.5t-73 -248.5zM317 1255q0 37 28 61.5t65 24.5q33 0 61.5 -24.5t28.5 -61.5q0 -43 -28 -66.5t-62 -23.5q-37 0 -65 25.5t-28 64.5zM719 1255q0 37 27.5 61.5t64.5 24.5q35 0 63.5 -24.5 t28.5 -61.5q0 -45 -27.5 -67.5t-64.5 -22.5t-64.5 25.5t-27.5 64.5z" />
<glyph unicode="&#xf7;" horiz-adv-x="1001" d="M51 572q-9 16 -9 32t9 32q18 32 64 32h696q45 0 66 -32q11 -17 10 -34q0 -15 -8 -30q-18 -32 -68 -31h-696q-46 -1 -64 31zM365 346q0 39 24.5 63.5t63.5 24.5q41 0 66.5 -24.5t25.5 -63.5t-25.5 -63.5t-66.5 -24.5q-39 0 -63.5 24.5t-24.5 63.5zM365 879q0 39 24.5 63.5 t63.5 24.5q41 0 66.5 -24.5t25.5 -63.5t-25.5 -62.5t-66.5 -23.5q-39 0 -63.5 23.5t-24.5 62.5z" />
<glyph unicode="&#xf8;" horiz-adv-x="1251" d="M74 559q16 168 115.5 301t263.5 178q63 18 155 19q84 0 152 -19q43 -14 55 -14l64 111q20 41 62 41t67 -32q13 -17 13 -36q0 -16 -9 -33l-80 -123q90 -72 145.5 -175t63.5 -218q1 -19 1 -37q0 -203 -124 -352q-152 -182 -410 -182q-109 0 -207 35l-69 -121 q-25 -39 -60 -39q-16 0 -33 8q-39 19 -40 55q0 16 8 35l74 129q-37 27 -82 80q-126 147 -126 357q0 16 1 32zM225 516q0 -152 90 -256q18 -25 39 -39l389 674q-56 22 -124 22q-58 0 -123 -16h2q-125 -33 -199 -142.5t-74 -242.5zM473 147q66 -20 135 -20q184 0 295 133 q88 102 88 250q0 82 -36.5 168t-94.5 145z" />
<glyph unicode="&#xf9;" horiz-adv-x="1323" d="M133 438v543q0 72 74 72q35 0 55.5 -19.5t20.5 -52.5v-543q0 -137 94 -228t223 -91q154 0 269.5 111.5t115.5 275.5v475q0 72 74 72q35 0 56.5 -19.5t21.5 -52.5v-918q0 -45 -37 -63q-18 -9 -37 -9l-37 9q-37 18 -37 66v129q-53 -106 -158.5 -160.5t-232.5 -54.5 q-190 0 -327.5 123.5t-137.5 334.5zM451 1346q-22 24 -22 46q0 23 24 44q27 23 54 23q19 0 38 -11q16 -8 26 -25l156 -176q12 -16 12 -32q0 -11 -6 -23q-14 -29 -47 -34q-6 -1 -11 -1q-28 0 -59 21z" />
<glyph unicode="&#xfa;" horiz-adv-x="1323" d="M133 438v543q0 72 74 72q35 0 55.5 -19.5t20.5 -52.5v-543q0 -137 94 -228t223 -91q154 0 269.5 111.5t115.5 275.5v475q0 72 74 72q35 0 56.5 -19.5t21.5 -52.5v-918q0 -45 -37 -63q-18 -9 -37 -9l-37 9q-37 18 -37 66v129q-53 -106 -158.5 -160.5t-232.5 -54.5 q-190 0 -327.5 123.5t-137.5 334.5zM549 1187q-4 10 -4 20q0 16 10 32l158 162q29 35 65 35q18 0 39 -9q41 -19 41 -49q0 -7 -2 -14q-4 -14 -18 -29l-174 -159q-27 -22 -56 -22q-7 0 -13 1q-36 6 -46 32z" />
<glyph unicode="&#xfb;" horiz-adv-x="1323" d="M133 438v543q0 72 74 72q35 0 55.5 -19.5t20.5 -52.5v-543q0 -137 94 -228t223 -91q154 0 269.5 111.5t115.5 275.5v475q0 72 74 72q35 0 56.5 -19.5t21.5 -52.5v-918q0 -45 -37 -63q-18 -9 -37 -9l-37 9q-37 18 -37 66v129q-53 -106 -158.5 -160.5t-232.5 -54.5 q-190 0 -327.5 123.5t-137.5 334.5zM402 1174q-2 6 -1 11q0 22 21 48l160 135q30 24 58.5 24t55.5 -24l162 -135q22 -21 23 -43q0 -8 -3 -15q-11 -30 -43 -36q-7 -1 -15 -2q-25 0 -50 16l-131 104l-133 -106q-22 -16 -45 -16q-9 0 -19 3q-33 9 -40 36z" />
<glyph unicode="&#xfc;" horiz-adv-x="1323" d="M133 438v543q0 72 74 72q35 0 55.5 -19.5t20.5 -52.5v-543q0 -137 94 -228t223 -91q154 0 269.5 111.5t115.5 275.5v475q0 72 74 72q35 0 56.5 -19.5t21.5 -52.5v-918q0 -45 -37 -63q-18 -9 -37 -9l-37 9q-37 18 -37 66v129q-53 -106 -158.5 -160.5t-232.5 -54.5 q-190 0 -327.5 123.5t-137.5 334.5zM344 1249q0 37 27.5 61.5t64.5 24.5q33 0 61.5 -24.5t28.5 -61.5q0 -43 -27.5 -66.5t-62.5 -23.5q-37 0 -64.5 25.5t-27.5 64.5zM745 1249q0 37 28 61.5t65 24.5q35 0 63.5 -24.5t28.5 -61.5q0 -45 -28 -67.5t-64.5 -22.5t-64.5 25.5 t-28 64.5z" />
<glyph unicode="&#xfd;" horiz-adv-x="1144" d="M18 954l449 -882l-180 -367q-8 -19 -8 -35q0 -23 15 -42q21 -27 54 -26q6 0 13 1q42 6 65 51l657 1307q6 15 6 28q0 23 -17 41q-26 27 -63 27h-5q-41 -2 -60 -41l-391 -793l-395 791q-18 43 -61 44h-2q-40 0 -67 -32q-17 -20 -17 -41q0 -15 7 -31zM500 1214l149 183 q27 39 62 39q16 0 34 -9q42 -21 43 -57q0 -6 -2 -12q-4 -18 -18 -35l-166 -180q-28 -27 -53 -27q-19 0 -38 16q-24 21 -24 45q0 17 13 37z" />
<glyph unicode="&#xfe;" horiz-adv-x="1247" d="M137 -303v1675q0 33 20.5 52.5t55.5 19.5q74 0 74 -72v-491q51 82 138 127t183 47h22q115 0 199 -39l-2 2q143 -55 227.5 -185.5t88.5 -287.5v-17q0 -172 -81 -307q-85 -141 -249 -209l2 2q-92 -39 -196 -39q-100 0 -191.5 45.5t-140.5 135.5v-459q0 -70 -76 -70 q-33 0 -53.5 18.5t-20.5 51.5zM287 436q8 -143 105 -231t239 -88q125 10 211 78h-2q154 126 153 337v11q-2 80 -30 151q-43 102 -140.5 160.5t-210.5 58.5q-137 -6 -225 -95t-100 -220v-162z" />
<glyph unicode="&#xff;" horiz-adv-x="1144" d="M18 954l449 -882l-180 -367q-8 -19 -8 -35q0 -23 15 -42q21 -27 54 -26q6 0 13 1q42 6 65 51l657 1307q6 15 6 28q0 23 -17 41q-26 27 -63 27h-5q-41 -2 -60 -41l-391 -793l-395 791q-18 43 -61 44h-2q-40 0 -67 -32q-17 -20 -17 -41q0 -15 7 -31zM258 1225 q0 37 27.5 61.5t64.5 24.5q33 0 61.5 -24.5t28.5 -61.5q0 -43 -27.5 -66.5t-62.5 -23.5q-37 0 -64.5 25.5t-27.5 64.5zM659 1225q0 37 28 61.5t65 24.5q35 0 63.5 -24.5t28.5 -61.5q0 -45 -28 -67.5t-64.5 -22.5t-64.5 25.5t-28 64.5z" />
<glyph unicode="&#x152;" horiz-adv-x="2177" d="M94 674q6 246 150.5 428t382.5 219q66 8 110 8q246 0 365 -137q0 111 94 111h784q39 0 58 -34q10 -18 10 -36q0 -16 -8 -32q-16 -34 -62 -34h-733v-454h694q37 0 54 -34q8 -17 8 -35q0 -16 -7 -33q-15 -34 -55 -33h-694v-439h733q39 0 57 -35q9 -18 9 -35t-8 -34 q-16 -35 -58 -35h-778q-98 0 -98 117q-104 -139 -352 -140q-279 0 -471 192q-185 184 -185 479v26zM244 668q0 -10 -1 -19q0 -229 144 -379q150 -156 363 -155q217 0 352 137v801q-156 137 -363 137q-43 0 -88 -6h-2q-182 -29 -290.5 -174t-114.5 -342z" />
<glyph unicode="&#x153;" horiz-adv-x="2164" d="M57 559q14 168 114.5 300t264.5 179q63 18 156 19q84 0 151 -19q190 -51 306 -252q100 197 305 252q63 18 155 19q227 0 375 -146.5t160 -386.5v2q1 -6 1 -12q0 -33 -20 -59q-23 -31 -81 -31h-809q20 -94 84 -164q109 -129 288 -133h13q142 0 262 90h-2q25 23 52 23 q9 0 19 -2q39 -10 49 -47q2 -8 2 -17q0 -29 -24 -63q-129 -123 -350 -123h-15q-324 0 -464 260q-53 -117 -181.5 -188.5t-275.5 -71.5q-260 0 -412 182q-124 148 -124 352q0 18 1 37zM209 516q0 -152 90 -256q111 -133 293 -133q178 0 295 133q90 109 90 252 q0 164 -109.5 283.5t-277.5 119.5q-53 0 -111 -14h2q-127 -33 -199.5 -141.5t-72.5 -243.5zM1128 551h766q-12 133 -84.5 228t-189.5 126h2q-49 12 -109 13q-66 0 -114 -15q-119 -31 -191 -128t-80 -224z" />
<glyph unicode="&#x178;" horiz-adv-x="1263" d="M12 1286q-8 -14 -8 -29q0 -21 14 -45l519 -686v-458q0 -37 21.5 -56.5t53.5 -19.5q29 0 52.5 20.5t23.5 55.5v458l514 691q14 22 15 42q0 17 -11 32q-23 34 -60.5 34t-66.5 -35l-469 -635l-463 633q-24 35 -63 35h-8q-46 -4 -64 -37zM338 1493q0 37 27.5 61.5t64.5 24.5 q33 0 61.5 -24.5t28.5 -61.5q0 -43 -27.5 -66.5t-62.5 -23.5q-37 0 -64.5 25.5t-27.5 64.5zM719 1493q0 37 27.5 61.5t64.5 24.5q35 0 63.5 -24.5t28.5 -61.5q0 -45 -27.5 -67.5t-64.5 -22.5t-64.5 25.5t-27.5 64.5z" />
<glyph unicode="&#x2c6;" horiz-adv-x="661" d="M81 1137q-19 19 -19 40q0 24 24 50l158 147q30 25 58.5 25t55.5 -25l160 -147q22 -22 23 -46q0 -9 -3 -18q-11 -33 -43 -40q-8 -2 -16 -1q-24 0 -49 17l-129 114l-133 -116q-24 -20 -45.5 -20t-41.5 20z" />
<glyph unicode="&#x2dc;" horiz-adv-x="722" d="M72 1242q-6 11 -6 25q0 20 12 46q55 88 164 88q41 0 89 -22.5t75.5 -41t62.5 -21.5h5q31 0 46 34q20 41 56 41q12 0 26 -5q43 -16 43 -55q0 -18 -8 -33q-41 -84 -123 -99q-18 -3 -37 -3q-64 0 -129 41q-64 41 -107 41q-42 0 -63 -39q-19 -28 -50 -28h-6q-36 3 -50 31z " />
<glyph unicode="&#x2000;" horiz-adv-x="854" />
<glyph unicode="&#x2001;" horiz-adv-x="1708" />
<glyph unicode="&#x2002;" horiz-adv-x="854" />
<glyph unicode="&#x2003;" horiz-adv-x="1708" />
<glyph unicode="&#x2004;" horiz-adv-x="569" />
<glyph unicode="&#x2005;" horiz-adv-x="425" />
<glyph unicode="&#x2006;" horiz-adv-x="284" />
<glyph unicode="&#x2007;" horiz-adv-x="284" />
<glyph unicode="&#x2008;" horiz-adv-x="212" />
<glyph unicode="&#x2009;" horiz-adv-x="339" />
<glyph unicode="&#x200a;" horiz-adv-x="94" />
<glyph unicode="&#x2010;" horiz-adv-x="747" d="M75 572q-9 16 -10 34q0 18 11 35q20 35 67 35h414q49 0 70 -35q10 -17 10 -34.5t-10 -34.5q-20 -34 -70 -33h-414q-49 -1 -68 33z" />
<glyph unicode="&#x2011;" horiz-adv-x="747" d="M75 572q-9 16 -10 34q0 18 11 35q20 35 67 35h414q49 0 70 -35q10 -17 10 -34.5t-10 -34.5q-20 -34 -70 -33h-414q-49 -1 -68 33z" />
<glyph unicode="&#x2012;" horiz-adv-x="747" d="M75 572q-9 16 -10 34q0 18 11 35q20 35 67 35h414q49 0 70 -35q10 -17 10 -34.5t-10 -34.5q-20 -34 -70 -33h-414q-49 -1 -68 33z" />
<glyph unicode="&#x2013;" horiz-adv-x="831" d="M70 578q-9 17 -9 33q0 18 10 36q19 35 64 35h527q39 0 57 -35q10 -18 10 -37q0 -16 -8 -32q-16 -35 -59 -35h-525q-49 0 -67 35z" />
<glyph unicode="&#x2014;" horiz-adv-x="1097" d="M83 578q-7 16 -7 32q0 18 9 37q17 35 56 35h789q41 0 58 -35q9 -18 9 -36q0 -17 -8 -33q-16 -35 -59 -35h-789q-43 0 -58 35z" />
<glyph unicode="&#x2018;" horiz-adv-x="296" d="M33 1090l92 192q20 43 58 45t59.5 -28.5t3.5 -71.5l-84 -197q-18 -43 -60.5 -44t-65.5 32t-3 72z" />
<glyph unicode="&#x2019;" horiz-adv-x="274" d="M25 1087l84 197q18 43 60 44h2q40 0 63 -32q13 -18 13 -36q0 -17 -9 -35l-93 -193q-20 -43 -58 -45h-5q-35 0 -54 29q-12 17 -12 36q0 16 9 35z" />
<glyph unicode="&#x201a;" horiz-adv-x="301" d="M4 -104l84 196q18 43 60 44h3q40 0 63 -32q13 -18 13 -36q0 -17 -10 -35l-92 -193q-20 -43 -58 -45h-5q-35 0 -55 29q-12 17 -11 36q-1 17 8 36z" />
<glyph unicode="&#x201c;" horiz-adv-x="509" d="M33 1090l92 192q25 48 62 49q15 0 31 -8q38 -17 38 -53q0 -19 -10 -43l-84 -197q-18 -43 -61 -44h-2q-40 0 -63 32q-13 18 -13 37q0 17 10 35zM272 1090l97 186q18 41 55 45h9q31 0 49 -26q12 -16 12 -34q0 -16 -9 -34l-84 -197q-18 -43 -60 -44h-3q-40 0 -63 32 q-13 18 -12 37q-1 17 9 35z" />
<glyph unicode="&#x201d;" horiz-adv-x="520" d="M23 1079l83 197q18 43 61 44h2q40 0 63 -32q13 -18 13 -37q0 -17 -9 -34l-97 -187q-18 -41 -55 -45h-9q-31 0 -49 26q-12 16 -12 34q0 16 9 34zM262 1079l84 197q18 43 61 44h2q40 0 63 -32q13 -18 13 -37q0 -17 -10 -34l-92 -193q-25 -48 -62 -48q-15 0 -31 7 q-38 17 -38 53q-1 19 10 43z" />
<glyph unicode="&#x201e;" horiz-adv-x="509" d="M4 -104l84 196q18 43 60 44h3q40 0 63 -32q13 -18 13 -36q0 -17 -10 -35l-92 -193q-20 -43 -58 -45h-5q-35 0 -55 29q-12 17 -11 36q-1 17 8 36zM262 -104l84 196q18 43 61 44h2q40 0 63 -32q13 -18 13 -36q0 -17 -10 -35l-92 -193q-20 -43 -58 -45h-5q-35 0 -55 29 q-12 17 -11 36q-1 17 8 36z" />
<glyph unicode="&#x2022;" horiz-adv-x="479" d="M45 608q0 72 50 121t120 49q76 0 125 -49t49 -121q0 -70 -50 -119t-124 -49q-70 0 -120 49t-50 119z" />
<glyph unicode="&#x2026;" horiz-adv-x="751" d="M8 88q0 39 25.5 61.5t66.5 22.5t64.5 -22.5t23.5 -61.5t-24.5 -63.5t-63.5 -24.5q-41 0 -66.5 24.5t-25.5 63.5zM256 88q0 39 24.5 61.5t65.5 22.5t65.5 -22.5t24.5 -61.5t-25.5 -63.5t-64.5 -24.5t-64.5 24.5t-25.5 63.5zM504 88q0 39 23.5 61.5t64.5 22.5t66.5 -22.5 t25.5 -61.5t-25.5 -63.5t-66.5 -24.5q-39 0 -63.5 24.5t-24.5 63.5z" />
<glyph unicode="&#x202f;" horiz-adv-x="339" />
<glyph unicode="&#x2039;" horiz-adv-x="647" d="M82 469q-32 29 -32 60q0 32 34 65l352 340q20 20 51 20q35 0 55.5 -19.5t20.5 -51.5q0 -25 -20 -47l-328 -306l322 -301q27 -25 26.5 -53.5t-21 -49t-55.5 -20.5q-31 0 -53 23z" />
<glyph unicode="&#x203a;" horiz-adv-x="618" d="M53 162q0 27 25 53l311 299l-315 305q-20 29 -21 49q0 33 20.5 52.5t55.5 19.5q31 0 51 -20h-2l354 -340q34 -36 34 -68q0 -30 -29 -57l-355 -340h2q-20 -25 -55 -25q-33 0 -54.5 20.5t-21.5 51.5z" />
<glyph unicode="&#x205f;" horiz-adv-x="425" />
<glyph unicode="&#x20ac;" horiz-adv-x="1366" d="M-6 497q-7 15 -7 31q0 17 8 33q15 33 48 33h66q-3 18 -3 53q0 45 3 66h-66q-35 0 -47 32q-6 15 -6 31q0 17 8 34q14 32 45 32h84q51 176 184 300t320 154q41 8 104 9q293 0 471 -193q14 -17 15 -36q0 -13 -8 -27q-17 -35 -50 -44q-8 -2 -16 -3q-24 0 -47 20 q-82 90 -203 122q-76 20 -155 20q-45 0 -91 -7q-131 -20 -230 -106t-145 -209h277q39 0 57 -32q10 -17 10 -34q0 -15 -8 -31q-16 -33 -59 -32h-313q-2 -23 -2 -70q0 -31 2 -49h313q27 0 43 -20.5t17 -44t-14 -44t-46 -20.5h-281q57 -154 192.5 -249t295.5 -95 q117 0 223.5 52t175.5 140q22 25 51 25h9q35 -4 57 -38q11 -17 11 -34t-11 -35q-78 -119 -225.5 -184t-296.5 -65q-221 0 -397.5 133t-233.5 350h-80q-35 0 -49 32z" />
<glyph unicode="&#x2122;" horiz-adv-x="1216" d="M-57 1271q14 34 51 34h414q43 0 62 -34q10 -17 10 -35q0 -16 -9 -33q-18 -34 -63 -34h-136v-389q0 -41 -34 -59q-18 -9 -37 -10q-17 0 -34 9q-36 17 -40 60v389h-133q-35 0 -50 34q-8 17 -8 35q0 17 7 33zM530 782v455q0 57 52 72q11 3 21 3q37 0 63 -40l178 -254 l180 254q26 40 62 40q10 0 22 -3q51 -14 51 -72v-455q0 -43 -37 -57q-16 -6 -32 -6q-20 0 -40 10q-36 18 -36 53v250l-109 -168q-22 -42 -58 -42h-2q-38 1 -61 42l-108 168v-250q0 -35 -37 -53q-21 -10 -41 -10q-16 0 -32 6q-36 14 -36 57z" />
<glyph unicode="&#xe000;" horiz-adv-x="1060" d="M0 1060h1060v-1060h-1060v1060z" />
<glyph unicode="&#xfb01;" horiz-adv-x="1130" d="M26 924q-7 15 -8 30q0 16 9 32q16 32 53 32h108v45q0 94 52.5 165.5t127.5 103.5q58 25 124 25q19 0 39 -2q89 -9 159 -63q26 -22 26 -50q0 -8 -2 -16q-9 -38 -42 -48q-11 -3 -22 -4q-22 0 -44 14q-47 35 -106 37h-5q-57 0 -106 -44q-51 -46 -51 -120v-43h197 q35 0 49 -32q7 -16 7 -31.5t-7 -30.5q-14 -31 -49 -31h-197v-836q0 -43 -38 -60q-19 -9 -37.5 -9t-37.5 9q-37 17 -37 60v836h-110q-37 0 -52 31zM836 1196v92q0 33 23.5 52.5t53 19.5t53 -19.5t23.5 -52.5v-92q0 -43 -38 -61q-19 -9 -39 -10q-19 0 -38 9q-38 17 -38 62z M838 53v922q0 41 38 59q19 9 38 10q18 0 36 -9q37 -17 37 -58v-924q0 -43 -37 -59q-18 -8 -36 -8q-19 0 -38 9q-38 17 -38 58z" />
<glyph unicode="&#xfb02;" horiz-adv-x="1130" d="M26 924q-7 15 -8 30q0 16 9 32q16 32 53 32h108v45q0 94 52.5 165.5t127.5 103.5q58 25 124 25q19 0 39 -2q89 -9 159 -63q26 -22 26 -50q0 -8 -2 -16q-9 -38 -42 -48q-11 -3 -22 -4q-22 0 -44 14q-47 35 -106 37h-5q-57 0 -106 -44q-51 -46 -51 -120v-43h197 q35 0 49 -32q7 -16 7 -31.5t-7 -30.5q-14 -31 -49 -31h-197v-836q0 -43 -38 -60q-19 -9 -37.5 -9t-37.5 9q-37 17 -37 60v836h-110q-37 0 -52 31zM838 61v1229q0 29 21.5 49.5t53.5 20.5q31 0 52.5 -20.5t21.5 -49.5v-1229q0 -29 -21.5 -49t-52.5 -20q-33 0 -54 20t-21 49z " />
<glyph unicode="&#xfb03;" horiz-adv-x="1847" d="M26 924q-7 15 -8 30q0 16 9 32q16 32 53 32h108v45q0 94 52.5 165.5t127.5 103.5q58 25 124 25q19 0 39 -2q89 -9 159 -63q26 -22 26 -50q0 -8 -2 -16q-9 -38 -42 -48q-11 -3 -22 -4q-22 0 -44 14q-47 35 -106 37h-5q-57 0 -106 -44q-51 -46 -51 -120v-43h197 q35 0 49 -32q7 -16 7 -31.5t-7 -30.5q-14 -31 -49 -31h-197v-836q0 -43 -38 -60q-19 -9 -37.5 -9t-37.5 9q-37 17 -37 60v836h-110q-37 0 -52 31zM742 924q-7 15 -7 30q0 16 8 32q16 32 54 32h108v45q0 94 52.5 165.5t126.5 103.5q58 25 125 25q19 0 39 -2q89 -9 159 -63 q26 -22 26 -50q0 -8 -2 -16q-9 -38 -42 -48q-11 -3 -22 -4q-22 0 -44 14q-47 35 -106 37h-6q-57 0 -105 -44q-51 -46 -51 -120v-43h196q35 0 49 -32q7 -16 7.5 -31.5t-7.5 -30.5q-14 -31 -49 -31h-196v-836q0 -43 -38 -60q-19 -9 -37.5 -9t-37.5 9q-37 17 -37 60v836h-110 q-38 0 -53 31zM1552 1196v92q0 33 23.5 52.5t53.5 19.5t53.5 -19.5t23.5 -52.5v-92q0 -43 -38 -61q-19 -9 -39 -10q-19 0 -38 9q-39 17 -39 62zM1554 53v922q0 41 38 59q19 9 39 10q18 0 36 -9q37 -17 37 -58v-924q0 -43 -37 -59q-18 -8 -36 -8q-19 0 -39 9q-38 17 -38 58z " />
<glyph unicode="&#xfb04;" horiz-adv-x="1847" d="M26 924q-7 15 -8 30q0 16 9 32q16 32 53 32h108v45q0 94 52.5 165.5t127.5 103.5q58 25 124 25q19 0 39 -2q89 -9 159 -63q26 -22 26 -50q0 -8 -2 -16q-9 -38 -42 -48q-11 -3 -22 -4q-22 0 -44 14q-47 35 -106 37h-5q-57 0 -106 -44q-51 -46 -51 -120v-43h197 q35 0 49 -32q7 -16 7 -31.5t-7 -30.5q-14 -31 -49 -31h-197v-836q0 -43 -38 -60q-19 -9 -37.5 -9t-37.5 9q-37 17 -37 60v836h-110q-37 0 -52 31zM742 924q-7 15 -7 30q0 16 8 32q16 32 54 32h108v45q0 94 52.5 165.5t126.5 103.5q58 25 125 25q19 0 39 -2q89 -9 159 -63 q26 -22 26 -50q0 -8 -2 -16q-9 -38 -42 -48q-11 -3 -22 -4q-22 0 -44 14q-47 35 -106 37h-6q-57 0 -105 -44q-51 -46 -51 -120v-43h196q35 0 49 -32q7 -16 7.5 -31.5t-7.5 -30.5q-14 -31 -49 -31h-196v-836q0 -43 -38 -60q-19 -9 -37.5 -9t-37.5 9q-37 17 -37 60v836h-110 q-38 0 -53 31zM1554 61v1229q0 29 21.5 49.5t54.5 20.5q31 0 52.5 -20.5t21.5 -49.5v-1229q0 -29 -21.5 -49t-52.5 -20q-33 0 -54.5 20t-21.5 49z" />
</font>
</defs>
</svg>
